<svg id="svg" version="1.1" xmlns="http://www.w3.org/2000/svg" xmlns:xlink="http://www.w3.org/1999/xlink" width="400" height="400" viewBox="0, 0, 400,400"><g id="svgg"><path id="path0" d="M116.981 117.983 C 112.998 119.028,107.853 122.171,106.270 124.527 C 105.948 125.007,105.350 125.760,104.942 126.200 C 103.603 127.644,101.997 131.085,101.191 134.234 C 100.261 137.872,99.926 243.230,100.831 247.680 C 102.073 253.788,106.296 260.182,110.800 262.776 C 117.266 266.499,116.088 266.400,154.064 266.400 L 187.200 266.400 187.200 238.377 C 187.200 220.178,187.348 209.696,187.622 208.477 C 188.194 205.931,188.828 203.566,189.197 202.600 C 189.874 200.826,192.216 196.191,192.498 196.067 C 192.664 195.993,192.803 195.723,192.807 195.467 C 192.850 192.730,203.610 183.703,209.400 181.546 C 216.296 178.977,217.922 178.800,234.650 178.800 L 249.638 178.800 249.509 156.900 C 249.366 132.821,248.983 129.860,245.616 126.800 C 245.495 126.690,244.880 125.909,244.250 125.064 C 240.532 120.079,233.703 117.217,225.500 117.206 L 221.200 117.200 221.186 125.700 C 221.170 135.376,220.839 137.403,218.536 141.947 C 215.158 148.612,209.071 152.938,201.270 154.217 C 196.904 154.933,153.891 155.060,149.646 154.370 C 139.895 152.784,133.262 147.459,130.001 138.600 C 129.059 136.040,128.800 133.234,128.800 125.594 L 128.800 117.200 124.300 117.222 C 121.270 117.237,118.879 117.486,116.981 117.983 " stroke="none" fill="#24c4dc" fill-rule="evenodd"></path><path id="path1" d="M150.163 100.563 C 146.645 101.417,144.463 103.189,142.780 106.561 C 142.308 107.506,142.200 110.226,142.200 121.161 L 142.200 134.600 143.263 136.233 C 144.547 138.206,146.407 139.825,148.297 140.615 C 150.415 141.500,199.616 141.487,201.736 140.601 C 207.248 138.298,207.776 136.688,207.921 121.721 C 208.087 104.637,207.180 102.314,199.655 100.543 C 196.533 99.808,153.200 99.825,150.163 100.563 M121.600 116.659 C 124.912 116.953,129.112 116.976,128.940 116.700 C 128.837 116.535,126.828 116.430,124.476 116.467 C 122.124 116.504,120.830 116.590,121.600 116.659 M221.067 116.667 C 220.920 116.813,220.803 117.128,220.806 117.367 C 220.810 117.635,220.930 117.615,221.120 117.315 C 221.320 117.000,222.899 116.784,225.614 116.699 L 229.800 116.569 225.567 116.484 C 223.238 116.438,221.213 116.520,221.067 116.667 M243.200 123.400 C 243.946 124.170,244.647 124.800,244.757 124.800 C 244.867 124.800,244.346 124.170,243.600 123.400 C 242.854 122.630,242.153 122.000,242.043 122.000 C 241.933 122.000,242.454 122.630,243.200 123.400 M129.293 133.200 C 129.293 133.970,129.375 134.285,129.476 133.900 C 129.576 133.515,129.576 132.885,129.476 132.500 C 129.375 132.115,129.293 132.430,129.293 133.200 M220.493 133.600 C 220.493 134.370,220.575 134.685,220.676 134.300 C 220.776 133.915,220.776 133.285,220.676 132.900 C 220.575 132.515,220.493 132.830,220.493 133.600 M100.200 135.200 C 100.048 135.891,100.007 136.541,100.109 136.642 C 100.211 136.744,100.409 136.253,100.550 135.550 C 100.883 133.883,100.560 133.560,100.200 135.200 M146.800 153.582 C 147.130 153.805,147.745 153.991,148.167 153.994 C 149.190 154.002,148.871 153.773,147.400 153.444 C 146.524 153.248,146.362 153.285,146.800 153.582 M202.000 153.600 C 201.196 153.857,201.157 153.923,201.800 153.932 C 202.240 153.938,202.960 153.789,203.400 153.600 C 204.419 153.162,203.368 153.162,202.000 153.600 M219.900 179.482 C 220.395 179.578,221.205 179.578,221.700 179.482 C 222.195 179.387,221.790 179.309,220.800 179.309 C 219.810 179.309,219.405 179.387,219.900 179.482 M215.200 180.006 C 214.778 180.282,215.015 180.323,216.000 180.142 C 217.725 179.825,218.051 179.598,216.767 179.606 C 216.235 179.609,215.530 179.789,215.200 180.006 M197.600 189.800 C 196.628 190.790,195.923 191.600,196.033 191.600 C 196.143 191.600,197.028 190.790,198.000 189.800 C 198.972 188.810,199.677 188.000,199.567 188.000 C 199.457 188.000,198.572 188.810,197.600 189.800 M218.800 192.396 C 213.601 193.284,209.094 196.016,205.100 200.703 C 204.495 201.412,204.000 202.102,204.000 202.235 C 204.000 202.368,203.665 202.954,203.256 203.538 C 202.847 204.122,202.087 205.680,201.568 207.000 L 200.623 209.400 200.411 243.200 C 200.200 277.049,200.322 281.374,201.580 284.600 C 204.796 292.847,210.868 297.846,219.600 299.438 C 223.427 300.135,275.786 300.252,279.967 299.572 C 288.771 298.142,295.688 292.437,298.607 284.200 C 299.858 280.672,299.984 277.149,299.984 245.800 C 299.984 212.604,299.893 210.632,298.169 206.404 C 295.650 200.229,291.028 195.727,284.588 193.176 L 282.200 192.231 251.400 192.160 C 234.460 192.121,219.790 192.227,218.800 192.396 M272.532 215.721 C 275.997 218.364,276.170 222.636,272.936 225.663 C 270.974 227.499,269.823 227.596,250.000 227.596 C 237.849 227.596,230.845 227.445,229.800 227.161 C 224.505 225.721,223.053 219.060,227.331 215.838 C 229.190 214.437,228.527 214.474,250.632 214.539 L 271.063 214.600 272.532 215.721 M271.592 239.963 C 276.444 242.718,276.402 249.149,271.516 251.643 C 270.118 252.356,268.867 252.400,250.000 252.400 C 231.133 252.400,229.882 252.356,228.484 251.643 C 222.941 248.813,223.931 240.787,229.975 239.560 C 232.837 238.980,270.501 239.344,271.592 239.963 M272.532 265.721 C 275.997 268.364,276.170 272.636,272.936 275.663 C 270.974 277.499,269.823 277.596,250.000 277.596 C 237.849 277.596,230.845 277.445,229.800 277.161 C 224.505 275.721,223.053 269.060,227.331 265.838 C 229.190 264.437,228.527 264.474,250.632 264.539 L 271.063 264.600 272.532 265.721 M136.930 266.700 C 146.351 266.760,161.651 266.760,170.930 266.700 C 180.208 266.640,172.500 266.591,153.800 266.591 C 135.100 266.591,127.508 266.640,136.930 266.700 " stroke="none" fill="#8ce4ec" fill-rule="evenodd"></path><path id="path2" d="M61.500 0.292 C 60.235 0.373,59.200 0.591,59.200 0.776 C 59.200 1.094,58.740 1.212,55.100 1.832 C 54.275 1.973,53.600 2.248,53.600 2.444 C 53.600 2.640,52.869 2.800,51.976 2.800 C 50.996 2.800,50.451 2.958,50.600 3.200 C 50.737 3.422,50.437 3.601,49.924 3.602 C 49.416 3.603,48.122 4.049,47.048 4.593 C 45.975 5.138,44.912 5.469,44.687 5.330 C 44.451 5.184,44.398 5.273,44.562 5.538 C 44.749 5.841,44.495 6.000,43.824 6.000 C 43.261 6.000,42.800 6.180,42.800 6.400 C 42.800 6.620,42.440 6.800,42.000 6.800 C 41.560 6.800,41.199 6.935,41.197 7.100 C 41.193 7.451,39.263 8.400,38.554 8.400 C 38.286 8.400,38.007 8.535,37.933 8.700 C 37.772 9.062,34.881 10.763,33.900 11.072 C 33.515 11.194,33.200 11.452,33.200 11.647 C 33.200 11.841,32.930 12.000,32.600 12.000 C 32.270 12.000,32.000 12.180,32.000 12.400 C 32.000 12.620,31.835 12.800,31.634 12.800 C 31.289 12.800,30.484 13.416,28.122 15.487 C 27.566 15.975,26.768 16.483,26.350 16.616 C 25.931 16.749,25.692 17.025,25.818 17.229 C 25.944 17.433,25.873 17.600,25.660 17.600 C 25.046 17.600,16.768 26.105,15.000 28.552 C 14.120 29.770,13.265 30.774,13.100 30.783 C 12.935 30.792,12.800 31.120,12.800 31.512 C 12.800 31.903,12.450 32.476,12.021 32.785 C 11.593 33.093,11.334 33.493,11.445 33.673 C 11.556 33.853,11.500 34.000,11.319 34.000 C 11.139 34.000,10.363 35.215,9.596 36.700 C 8.828 38.185,8.065 39.460,7.900 39.533 C 7.735 39.607,7.600 40.012,7.600 40.433 C 7.600 40.855,7.420 41.200,7.200 41.200 C 6.980 41.200,6.800 41.472,6.800 41.805 C 6.800 42.361,6.078 43.922,5.600 44.400 C 5.490 44.510,5.337 44.960,5.260 45.400 C 5.183 45.840,4.913 46.332,4.660 46.494 C 4.407 46.656,4.356 46.791,4.546 46.794 C 4.736 46.797,4.601 47.244,4.246 47.786 C 3.891 48.328,3.600 49.239,3.600 49.810 C 3.600 50.399,3.427 50.741,3.200 50.600 C 2.958 50.451,2.800 50.996,2.800 51.976 C 2.800 52.869,2.620 53.600,2.400 53.600 C 2.180 53.600,2.000 54.140,2.000 54.800 C 2.000 55.460,1.857 56.000,1.682 56.000 C 1.507 56.000,1.318 56.670,1.263 57.488 C 1.208 58.306,0.946 59.110,0.682 59.273 C -0.021 59.707,-0.021 340.293,0.682 340.727 C 0.946 340.890,1.208 341.694,1.263 342.512 C 1.318 343.330,1.507 344.000,1.682 344.000 C 1.857 344.000,2.000 344.540,2.000 345.200 C 2.000 345.860,2.143 346.400,2.318 346.400 C 2.493 346.400,2.681 347.075,2.736 347.900 C 2.790 348.725,3.007 349.460,3.218 349.533 C 3.428 349.607,3.600 350.091,3.600 350.610 C 3.600 351.128,3.780 351.664,4.000 351.800 C 4.220 351.936,4.400 352.382,4.400 352.790 C 4.400 353.199,4.588 353.596,4.818 353.673 C 5.048 353.749,5.266 354.214,5.303 354.706 C 5.340 355.198,5.512 355.600,5.685 355.600 C 5.858 355.600,6.000 355.872,6.000 356.205 C 6.000 356.761,6.722 358.322,7.200 358.800 C 7.678 359.278,8.400 360.839,8.400 361.395 C 8.400 361.728,8.535 362.001,8.700 362.003 C 8.865 362.005,9.201 362.410,9.448 362.903 C 10.917 365.848,11.419 366.654,12.072 367.123 C 12.472 367.410,12.800 367.913,12.800 368.240 C 12.800 368.856,13.300 369.584,14.500 370.717 C 14.885 371.080,15.200 371.526,15.200 371.708 C 15.200 371.890,15.647 372.453,16.193 372.959 C 16.740 373.465,17.086 373.980,16.963 374.103 C 16.840 374.226,17.113 374.446,17.570 374.590 C 18.026 374.735,18.400 375.003,18.400 375.186 C 18.400 375.678,24.083 381.402,25.125 381.960 C 25.619 382.224,25.917 382.611,25.788 382.820 C 25.658 383.029,25.823 383.200,26.154 383.200 C 26.484 383.200,26.991 383.515,27.279 383.900 C 27.939 384.781,30.224 386.400,30.807 386.400 C 31.049 386.400,31.136 386.580,31.000 386.800 C 30.864 387.020,31.035 387.200,31.380 387.200 C 31.725 387.200,32.572 387.740,33.263 388.400 C 33.954 389.060,34.762 389.600,35.059 389.600 C 35.357 389.600,35.600 389.791,35.600 390.024 C 35.600 390.257,35.765 390.345,35.968 390.220 C 36.170 390.095,36.614 390.271,36.953 390.611 C 37.293 390.950,37.664 391.238,37.777 391.249 C 38.646 391.337,39.600 391.755,39.600 392.047 C 39.600 392.241,40.050 392.400,40.600 392.400 C 41.150 392.400,41.601 392.535,41.603 392.700 C 41.607 393.065,43.549 394.000,44.303 394.000 C 44.602 394.000,44.759 394.143,44.651 394.317 C 44.544 394.491,44.845 394.663,45.322 394.699 C 45.798 394.735,46.251 394.952,46.327 395.182 C 46.404 395.412,46.801 395.600,47.210 395.600 C 47.618 395.600,48.064 395.780,48.200 396.000 C 48.336 396.220,49.112 396.403,49.924 396.406 C 51.024 396.411,51.247 396.511,50.800 396.800 C 50.343 397.095,50.505 397.189,51.476 397.194 C 52.178 397.197,52.864 397.380,53.000 397.600 C 53.136 397.820,53.867 398.000,54.624 398.000 C 55.381 398.000,56.000 398.180,56.000 398.400 C 56.000 398.620,56.821 398.800,57.824 398.800 C 58.827 398.800,59.547 398.962,59.424 399.161 C 58.926 399.967,73.741 400.041,204.000 399.884 C 341.652 399.719,340.800 399.723,340.800 399.133 C 340.800 398.950,341.419 398.800,342.176 398.800 C 342.933 398.800,343.664 398.620,343.800 398.400 C 343.936 398.180,344.476 398.000,345.000 398.000 C 345.524 398.000,346.064 397.820,346.200 397.600 C 346.336 397.380,347.157 397.200,348.024 397.200 C 348.891 397.200,349.600 397.020,349.600 396.800 C 349.600 396.580,350.050 396.400,350.600 396.400 C 351.150 396.400,351.600 396.220,351.600 396.000 C 351.600 395.780,351.872 395.600,352.205 395.600 C 352.538 395.600,353.123 395.441,353.505 395.247 C 354.178 394.904,354.750 394.659,357.500 393.536 C 358.215 393.244,358.800 392.869,358.800 392.702 C 358.800 392.536,359.160 392.400,359.600 392.400 C 360.040 392.400,360.400 392.220,360.400 392.000 C 360.400 391.780,360.687 391.600,361.038 391.600 C 361.732 391.600,363.863 390.501,364.721 389.700 C 365.016 389.425,365.396 389.200,365.566 389.200 C 365.736 389.200,366.399 388.750,367.038 388.200 C 367.677 387.651,368.425 387.201,368.700 387.200 C 368.975 387.200,369.200 387.020,369.200 386.800 C 369.200 386.580,369.448 386.400,369.752 386.400 C 370.055 386.400,371.045 385.680,371.952 384.800 C 372.859 383.920,373.781 383.200,374.000 383.200 C 374.220 383.200,374.400 382.919,374.400 382.576 C 374.400 382.233,374.535 382.026,374.700 382.115 C 374.986 382.270,382.298 375.135,382.502 374.502 C 382.556 374.336,382.735 374.245,382.900 374.300 C 383.065 374.355,383.200 374.220,383.200 374.000 C 383.200 373.781,383.920 372.859,384.800 371.952 C 385.680 371.045,386.400 370.055,386.400 369.752 C 386.400 369.448,386.580 369.200,386.800 369.200 C 387.020 369.200,387.200 368.930,387.200 368.600 C 387.200 368.270,387.380 368.000,387.600 368.000 C 387.820 368.000,388.000 367.730,388.000 367.400 C 388.000 367.070,388.180 366.800,388.400 366.800 C 388.620 366.800,388.800 366.564,388.800 366.275 C 388.800 365.987,389.115 365.397,389.500 364.963 C 390.502 363.836,391.600 361.784,391.600 361.038 C 391.600 360.687,391.780 360.400,392.000 360.400 C 392.220 360.400,392.404 360.085,392.409 359.700 C 392.414 359.315,392.770 358.550,393.200 358.000 C 393.630 357.450,393.986 356.773,393.991 356.495 C 393.996 356.217,394.157 355.677,394.350 355.295 C 395.914 352.189,396.400 351.021,396.400 350.362 C 396.400 349.943,396.543 349.600,396.718 349.600 C 396.893 349.600,397.081 348.925,397.136 348.100 C 397.190 347.275,397.407 346.540,397.618 346.467 C 397.828 346.393,398.000 345.819,398.000 345.190 C 398.000 344.562,398.180 343.936,398.400 343.800 C 398.620 343.664,398.800 342.933,398.800 342.176 C 398.800 341.419,398.950 340.800,399.133 340.800 C 399.725 340.800,399.721 341.546,399.885 204.000 C 400.040 73.712,399.966 58.926,399.161 59.424 C 398.962 59.547,398.800 58.827,398.800 57.824 C 398.800 56.821,398.620 56.000,398.400 56.000 C 398.180 56.000,398.000 55.538,398.000 54.974 C 398.000 54.409,397.819 53.609,397.597 53.195 C 397.376 52.781,397.158 51.996,397.112 51.450 C 397.067 50.904,396.888 50.545,396.715 50.652 C 396.542 50.760,396.400 50.307,396.400 49.647 C 396.400 48.987,396.220 48.336,396.000 48.200 C 395.780 48.064,395.600 47.603,395.600 47.176 C 395.600 46.749,395.420 46.400,395.200 46.400 C 394.980 46.400,394.800 46.135,394.800 45.812 C 394.800 45.489,394.440 44.583,394.000 43.800 C 393.560 43.017,393.200 42.188,393.200 41.959 C 393.200 41.730,392.928 41.271,392.596 40.939 C 392.264 40.607,392.095 40.170,392.220 39.968 C 392.345 39.765,392.257 39.600,392.024 39.600 C 391.791 39.600,391.600 39.313,391.600 38.962 C 391.600 38.611,391.228 37.801,390.773 37.162 C 390.318 36.523,390.093 35.995,390.273 35.988 C 390.453 35.981,390.281 35.790,389.892 35.563 C 389.502 35.336,389.288 34.982,389.415 34.775 C 389.543 34.569,389.457 34.400,389.224 34.400 C 388.991 34.400,388.800 34.221,388.800 34.003 C 388.800 33.785,388.447 33.200,388.015 32.703 C 387.583 32.206,387.199 31.620,387.161 31.400 C 387.123 31.180,386.757 30.765,386.346 30.477 C 385.936 30.190,385.600 29.710,385.600 29.411 C 385.600 29.112,385.060 28.358,384.400 27.735 C 383.740 27.112,383.200 26.462,383.200 26.291 C 383.200 26.119,381.130 23.922,378.600 21.408 C 376.070 18.895,374.000 16.926,374.000 17.034 C 374.000 17.142,373.251 16.510,372.336 15.631 C 371.421 14.751,370.545 14.110,370.389 14.207 C 370.234 14.303,369.785 14.025,369.391 13.591 C 368.998 13.156,368.468 12.800,368.214 12.800 C 367.960 12.800,367.178 12.239,366.476 11.553 C 365.774 10.866,365.200 10.429,365.200 10.580 C 365.200 10.731,364.677 10.482,364.038 10.027 C 363.399 9.572,362.679 9.200,362.438 9.200 C 362.197 9.200,362.000 9.020,362.000 8.800 C 362.000 8.580,361.640 8.400,361.200 8.400 C 360.760 8.400,360.400 8.220,360.400 8.000 C 360.400 7.780,360.040 7.600,359.600 7.600 C 359.160 7.600,358.800 7.420,358.800 7.200 C 358.800 6.980,358.587 6.800,358.326 6.800 C 357.854 6.800,355.581 5.824,352.662 4.367 C 351.816 3.945,350.796 3.600,350.396 3.600 C 349.995 3.600,349.607 3.428,349.533 3.218 C 349.460 3.007,348.725 2.790,347.900 2.736 C 347.075 2.681,346.400 2.493,346.400 2.318 C 346.400 2.143,345.860 2.000,345.200 2.000 C 344.540 2.000,344.000 1.820,344.000 1.600 C 344.000 1.380,343.295 1.200,342.433 1.200 C 341.536 1.200,340.796 0.987,340.700 0.700 C 340.544 0.233,68.615 -0.165,61.500 0.292 M203.123 101.225 C 208.021 104.034,208.514 105.714,208.693 120.200 C 208.884 135.711,208.234 137.903,202.580 140.810 L 200.655 141.800 174.828 141.800 L 149.000 141.800 147.400 140.861 C 141.876 137.619,141.241 135.567,141.218 120.862 C 141.194 106.504,141.894 104.083,146.894 101.215 L 149.000 100.008 175.000 100.008 L 201.000 100.008 203.123 101.225 M129.371 116.629 C 129.908 117.165,130.000 118.658,130.000 126.805 C 130.000 132.739,130.151 136.446,130.400 136.600 C 130.620 136.736,130.800 137.199,130.800 137.628 C 130.800 139.214,133.739 144.532,135.783 146.644 C 138.664 149.622,142.702 151.876,147.446 153.156 C 149.475 153.703,201.092 153.783,202.481 153.242 C 202.987 153.045,204.210 152.646,205.200 152.356 C 210.170 150.901,215.245 146.497,217.657 141.547 C 219.966 136.810,220.030 136.436,220.280 126.200 C 220.547 115.301,220.264 116.015,224.323 116.006 C 237.458 115.979,246.827 122.646,249.956 134.246 C 250.609 136.668,250.576 178.864,249.920 179.520 C 249.562 179.878,245.241 180.000,232.944 180.000 C 222.377 180.000,216.358 180.144,216.200 180.400 C 216.064 180.620,215.432 180.800,214.795 180.800 C 214.159 180.800,213.134 181.002,212.519 181.250 C 211.903 181.497,211.040 181.834,210.600 181.999 C 204.843 184.155,197.040 190.161,194.574 194.336 C 194.164 195.031,193.720 195.600,193.588 195.600 C 193.457 195.600,193.102 196.230,192.800 197.000 C 192.498 197.770,192.104 198.400,191.925 198.400 C 191.746 198.400,191.600 198.665,191.600 198.988 C 191.600 199.311,191.269 200.166,190.865 200.888 C 190.460 201.610,190.028 202.650,189.904 203.200 C 189.780 203.750,189.364 205.190,188.979 206.400 C 188.345 208.391,188.264 211.296,188.135 237.000 C 188.057 252.620,187.899 265.812,187.784 266.316 L 187.576 267.233 152.688 267.116 C 124.128 267.021,117.582 266.900,116.600 266.450 C 115.940 266.148,115.040 265.761,114.600 265.591 C 112.438 264.755,110.892 263.978,110.084 263.323 C 109.594 262.925,108.502 262.060,107.658 261.400 C 106.813 260.740,105.510 259.390,104.763 258.400 C 104.016 257.410,103.312 256.510,103.197 256.400 C 102.976 256.188,101.313 252.744,100.783 251.400 C 99.664 248.566,99.600 245.342,99.602 191.523 C 99.604 154.254,99.741 135.678,100.024 134.600 C 101.475 129.057,107.310 120.400,109.594 120.400 C 109.786 120.400,110.181 120.174,110.471 119.898 C 110.990 119.405,113.821 117.959,115.400 117.381 C 119.040 116.049,128.293 115.550,129.371 116.629 M280.469 191.626 C 283.917 192.316,288.534 193.993,289.200 194.797 C 289.310 194.930,290.030 195.472,290.800 196.001 C 294.871 198.801,298.293 203.821,299.674 209.021 C 300.733 213.008,300.412 280.329,299.317 283.800 C 297.011 291.111,291.111 297.011,283.800 299.317 C 279.403 300.704,220.597 300.704,216.200 299.317 C 208.853 296.999,203.275 291.448,200.842 284.034 C 200.011 281.503,200.000 280.982,200.000 245.758 L 200.000 210.048 201.053 207.124 C 203.104 201.430,210.128 193.600,213.183 193.600 C 213.419 193.600,213.923 193.441,214.305 193.247 C 215.785 192.494,217.076 192.068,219.000 191.696 C 221.863 191.143,277.738 191.080,280.469 191.626 M229.474 215.370 C 224.744 217.085,223.865 221.821,227.610 225.410 L 228.852 226.600 248.126 226.726 C 269.873 226.868,271.093 226.798,272.566 225.325 C 275.570 222.321,275.397 218.612,272.136 216.124 L 270.663 215.000 250.832 214.908 C 234.770 214.834,230.710 214.922,229.474 215.370 M228.624 240.524 C 227.293 241.340,226.000 242.737,226.000 243.358 C 226.000 243.685,225.820 244.064,225.600 244.200 C 224.674 244.773,225.372 247.990,226.800 249.732 C 228.332 251.599,228.340 251.600,250.121 251.600 L 270.682 251.600 272.041 250.686 C 275.905 248.087,275.521 242.929,271.283 240.500 C 270.057 239.797,229.771 239.820,228.624 240.524 M229.474 265.370 C 224.744 267.085,223.865 271.821,227.610 275.410 L 228.852 276.600 248.126 276.726 C 269.873 276.868,271.093 276.798,272.566 275.325 C 275.570 272.321,275.397 268.612,272.136 266.124 L 270.663 265.000 250.832 264.908 C 234.770 264.834,230.710 264.922,229.474 265.370 " stroke="none" fill="#e4fbfc" fill-rule="evenodd"></path><path id="path3" d="M124.300 117.099 L 128.800 117.226 128.828 125.913 C 128.844 130.691,128.979 134.910,129.128 135.288 C 129.417 136.020,129.286 118.148,128.996 117.300 C 128.871 116.933,127.628 116.823,124.313 116.886 L 119.800 116.971 124.300 117.099 M223.300 117.096 C 224.565 117.175,226.635 117.175,227.900 117.096 C 229.165 117.016,228.130 116.951,225.600 116.951 C 223.070 116.951,222.035 117.016,223.300 117.096 M116.800 117.621 C 116.370 117.914,116.654 117.954,117.800 117.762 C 119.784 117.430,120.104 117.198,118.567 117.206 C 117.925 117.209,117.130 117.396,116.800 117.621 M230.433 117.347 C 230.525 117.428,231.320 117.614,232.200 117.762 C 233.346 117.954,233.630 117.914,233.200 117.621 C 232.660 117.253,230.032 116.993,230.433 117.347 M220.891 125.650 C 220.841 130.188,220.711 134.508,220.601 135.250 L 220.403 136.600 220.810 135.313 C 221.048 134.558,221.168 130.589,221.100 125.713 L 220.983 117.400 220.891 125.650 M238.033 119.762 C 238.125 119.851,239.303 120.735,240.652 121.726 C 242.662 123.203,243.899 124.494,245.484 126.767 C 245.548 126.858,245.689 126.844,245.798 126.736 C 246.329 126.204,239.264 119.600,238.164 119.600 C 238.000 119.600,237.942 119.673,238.033 119.762 M108.755 121.744 C 106.894 123.165,103.913 126.446,104.212 126.745 C 104.309 126.842,104.792 126.400,105.285 125.761 C 106.472 124.223,107.890 122.821,109.600 121.495 C 110.370 120.898,110.891 120.407,110.758 120.404 C 110.624 120.402,109.723 121.005,108.755 121.744 M102.627 129.147 C 102.062 130.261,101.600 131.385,101.600 131.643 C 101.600 131.901,102.132 131.059,102.781 129.771 C 103.431 128.483,103.893 127.360,103.808 127.275 C 103.723 127.190,103.192 128.032,102.627 129.147 M246.600 128.400 C 246.941 129.060,247.311 129.600,247.421 129.600 C 247.531 129.600,247.341 129.060,247.000 128.400 C 246.659 127.740,246.289 127.200,246.179 127.200 C 246.069 127.200,246.259 127.740,246.600 128.400 M248.434 132.400 C 248.446 132.730,248.611 133.360,248.800 133.800 L 249.144 134.600 249.166 133.800 C 249.178 133.360,249.013 132.730,248.800 132.400 C 248.455 131.867,248.415 131.867,248.434 132.400 M101.049 133.015 C 100.912 133.373,100.815 133.966,100.834 134.333 C 100.853 134.700,101.027 134.469,101.221 133.820 C 101.598 132.558,101.465 131.933,101.049 133.015 M249.519 156.773 L 249.638 178.800 234.319 178.840 C 225.894 178.862,218.582 178.997,218.072 179.140 C 217.562 179.283,224.312 179.350,233.072 179.288 C 241.832 179.227,249.225 179.098,249.500 179.001 C 250.038 178.812,250.191 137.564,249.660 135.673 C 249.517 135.164,249.454 144.659,249.519 156.773 M100.250 136.450 C 99.689 139.253,100.001 246.091,100.577 248.400 C 101.267 251.168,102.039 253.295,102.270 253.064 C 102.367 252.966,102.188 252.267,101.872 251.510 C 100.388 247.960,100.344 246.008,100.474 189.900 C 100.543 159.815,100.578 135.200,100.550 135.200 C 100.523 135.200,100.388 135.763,100.250 136.450 M129.628 137.476 C 129.613 137.958,129.780 138.464,130.000 138.600 C 130.473 138.892,130.473 138.501,130.000 137.400 C 129.669 136.629,129.655 136.631,129.628 137.476 M219.800 138.000 C 219.650 138.473,219.617 138.950,219.727 139.060 C 219.837 139.170,220.050 138.873,220.200 138.400 C 220.350 137.927,220.383 137.450,220.273 137.340 C 220.163 137.230,219.950 137.527,219.800 138.000 M217.298 143.500 C 215.370 146.629,209.941 151.600,208.452 151.600 C 208.229 151.600,207.937 151.778,207.803 151.995 C 207.427 152.604,208.782 152.009,210.800 150.679 C 213.095 149.167,216.732 145.362,217.912 143.240 C 219.164 140.988,218.733 141.170,217.298 143.500 M132.588 143.875 C 133.354 145.486,137.844 149.969,139.641 150.917 C 140.948 151.607,140.962 151.607,140.020 150.917 C 137.003 148.708,134.822 146.525,132.691 143.580 C 131.988 142.609,131.987 142.612,132.588 143.875 M142.538 152.447 C 143.384 152.893,144.168 153.165,144.281 153.052 C 144.476 152.857,141.780 151.580,141.251 151.618 C 141.113 151.627,141.692 152.000,142.538 152.447 M145.600 153.600 C 145.930 153.813,146.470 153.988,146.800 153.988 C 147.333 153.988,147.333 153.945,146.800 153.600 C 146.470 153.387,145.930 153.212,145.600 153.212 C 145.067 153.212,145.067 153.255,145.600 153.600 M203.400 153.600 C 202.896 153.817,202.822 153.944,203.200 153.944 C 203.530 153.944,204.160 153.789,204.600 153.600 C 205.104 153.383,205.178 153.256,204.800 153.256 C 204.470 153.256,203.840 153.411,203.400 153.600 M150.200 154.400 C 151.835 154.816,197.797 154.837,199.800 154.423 C 200.706 154.235,190.041 154.093,175.200 154.093 C 160.790 154.094,149.540 154.232,150.200 154.400 M214.000 180.000 C 213.467 180.345,213.467 180.388,214.000 180.388 C 214.330 180.388,214.870 180.213,215.200 180.000 C 215.733 179.655,215.733 179.612,215.200 179.612 C 214.870 179.612,214.330 179.787,214.000 180.000 M211.200 180.800 C 210.667 181.145,210.667 181.188,211.200 181.188 C 211.530 181.188,212.070 181.013,212.400 180.800 C 212.933 180.455,212.933 180.412,212.400 180.412 C 212.070 180.412,211.530 180.587,211.200 180.800 M206.133 182.963 C 201.864 185.404,197.018 189.447,195.062 192.200 C 194.593 192.860,195.647 191.950,197.405 190.177 C 200.585 186.970,204.041 184.378,206.900 183.056 C 208.312 182.403,208.779 181.994,208.100 182.005 C 207.935 182.007,207.050 182.439,206.133 182.963 M193.269 194.439 C 192.510 195.654,192.966 195.816,193.755 194.612 C 194.120 194.056,194.278 193.600,194.105 193.600 C 193.933 193.600,193.557 193.978,193.269 194.439 M189.067 202.667 C 188.920 202.813,188.811 203.308,188.825 203.767 C 188.849 204.533,188.882 204.523,189.234 203.642 C 189.626 202.663,189.544 202.189,189.067 202.667 M188.249 205.415 C 188.112 205.773,188.018 206.456,188.041 206.933 C 188.067 207.481,188.203 207.286,188.410 206.403 C 188.760 204.916,188.665 204.333,188.249 205.415 M187.453 209.236 C 187.314 209.931,187.242 223.123,187.292 238.550 L 187.385 266.600 187.592 237.400 C 187.707 221.340,187.779 208.149,187.753 208.086 C 187.727 208.023,187.592 208.541,187.453 209.236 M102.409 253.900 C 102.414 254.065,102.785 254.650,103.233 255.200 L 104.048 256.200 103.414 254.900 C 102.811 253.665,102.389 253.245,102.409 253.900 M105.630 258.666 C 107.004 260.177,108.957 261.974,109.239 261.988 C 109.371 261.995,108.488 261.010,107.278 259.800 C 105.011 257.532,103.911 256.776,105.630 258.666 M110.000 262.590 C 110.000 262.694,110.585 263.065,111.300 263.414 L 112.600 264.048 111.600 263.233 C 110.637 262.448,110.000 262.192,110.000 262.590 M117.800 265.981 C 118.568 266.329,120.710 266.556,120.367 266.253 C 120.275 266.172,119.480 265.996,118.600 265.862 C 117.485 265.693,117.242 265.729,117.800 265.981 " stroke="none" fill="#65d5e4" fill-rule="evenodd"></path><path id="path4" d="M146.894 101.215 C 141.894 104.083,141.194 106.504,141.218 120.862 C 141.241 135.567,141.876 137.619,147.400 140.861 L 149.000 141.800 174.828 141.800 L 200.655 141.800 202.580 140.810 C 205.711 139.200,207.369 137.124,208.340 133.600 C 208.925 131.474,208.787 109.404,208.175 107.327 C 207.100 103.676,202.646 99.976,199.400 100.038 L 197.800 100.068 199.843 100.564 C 207.166 102.341,208.085 104.750,207.921 121.721 C 207.776 136.688,207.248 138.298,201.736 140.601 C 199.616 141.487,150.415 141.500,148.297 140.615 C 146.407 139.825,144.547 138.206,143.263 136.233 L 142.200 134.600 142.200 121.161 C 142.200 110.226,142.308 107.506,142.780 106.561 C 144.463 103.189,146.645 101.417,150.163 100.563 L 152.200 100.068 150.600 100.038 C 149.511 100.017,148.328 100.393,146.894 101.215 M125.000 116.377 L 129.000 116.600 129.229 125.896 C 129.526 137.969,130.000 138.338,130.000 126.495 C 130.000 115.285,130.336 115.968,124.871 116.077 L 121.000 116.155 125.000 116.377 M220.958 116.306 C 220.665 116.500,220.440 119.897,220.294 126.330 C 220.173 131.681,220.180 135.953,220.310 135.823 C 220.440 135.693,220.649 131.315,220.773 126.093 L 221.000 116.600 224.800 116.377 L 228.600 116.153 225.000 116.083 C 223.020 116.044,221.201 116.144,220.958 116.306 M229.600 116.519 C 229.710 116.635,230.700 116.901,231.800 117.110 C 232.900 117.320,234.745 117.873,235.900 118.340 C 238.177 119.260,238.823 119.200,236.700 118.266 C 234.003 117.079,228.951 115.837,229.600 116.519 M115.400 117.369 C 112.661 118.451,110.800 119.410,110.800 119.740 C 110.800 119.934,111.205 119.834,111.700 119.519 C 112.684 118.893,116.524 117.351,117.800 117.069 C 118.411 116.935,118.363 116.893,117.600 116.894 C 117.050 116.895,116.060 117.109,115.400 117.369 M240.118 120.600 C 241.927 121.981,242.958 122.486,241.929 121.487 C 241.131 120.713,238.917 119.200,238.581 119.200 C 238.418 119.200,239.110 119.830,240.118 120.600 M109.414 120.480 C 108.429 121.051,106.653 122.806,107.082 122.783 C 107.257 122.774,108.105 122.144,108.967 121.383 C 110.613 119.930,110.713 119.727,109.414 120.480 M104.983 124.515 C 102.978 126.849,100.727 131.411,100.204 134.200 C 100.080 134.860,100.403 134.230,100.922 132.800 C 102.192 129.300,103.357 127.104,104.844 125.411 C 105.525 124.635,105.929 124.007,105.741 124.015 C 105.554 124.024,105.213 124.249,104.983 124.515 M246.315 126.989 C 247.107 128.192,247.824 129.110,247.906 129.027 C 248.107 128.827,245.474 124.816,245.137 124.807 C 244.992 124.803,245.522 125.785,246.315 126.989 M249.026 132.601 C 249.186 133.260,249.471 134.217,249.659 134.726 C 249.846 135.235,250.000 145.450,250.000 157.426 L 250.000 179.200 236.500 179.250 C 229.075 179.277,221.740 179.429,220.200 179.587 C 218.586 179.752,224.188 179.901,233.420 179.937 C 245.418 179.984,249.560 179.880,249.920 179.520 C 250.618 178.822,250.570 136.580,249.868 133.919 C 249.326 131.864,248.554 130.656,249.026 132.601 M99.795 191.600 C 99.795 222.510,99.842 235.155,99.900 219.700 C 99.958 204.245,99.958 178.955,99.900 163.500 C 99.842 148.045,99.795 160.690,99.795 191.600 M130.028 136.676 C 130.118 137.715,130.744 138.596,130.772 137.724 C 130.787 137.242,130.620 136.736,130.400 136.600 C 130.180 136.464,130.013 136.498,130.028 136.676 M219.449 137.015 C 219.312 137.373,219.215 137.966,219.234 138.333 C 219.253 138.700,219.427 138.469,219.621 137.820 C 219.998 136.558,219.865 135.933,219.449 137.015 M130.813 138.913 C 130.786 139.586,131.995 142.024,133.364 144.056 C 134.154 145.229,134.800 146.040,134.800 145.856 C 134.800 145.673,134.403 144.967,133.919 144.286 C 133.434 143.605,132.540 142.048,131.931 140.824 C 131.323 139.601,130.819 138.741,130.813 138.913 M218.213 140.631 C 217.884 141.418,217.063 142.879,216.389 143.879 C 215.714 144.878,215.224 145.757,215.298 145.832 C 215.506 146.039,217.982 142.141,218.634 140.580 C 218.951 139.821,219.121 139.200,219.011 139.200 C 218.901 139.200,218.542 139.844,218.213 140.631 M135.200 146.311 C 135.200 147.569,144.296 153.437,145.061 152.672 C 145.200 152.533,144.974 152.309,144.557 152.176 C 141.521 151.200,137.748 148.818,135.900 146.710 C 135.515 146.271,135.200 146.091,135.200 146.311 M213.526 147.288 C 212.935 147.899,212.588 148.400,212.756 148.400 C 213.135 148.400,214.999 146.445,214.768 146.289 C 214.676 146.226,214.116 146.676,213.526 147.288 M209.657 150.217 C 208.478 150.952,207.398 151.676,207.257 151.826 C 206.870 152.236,210.028 150.557,211.400 149.622 C 213.340 148.301,211.993 148.761,209.657 150.217 M204.600 152.493 C 202.204 153.306,201.769 153.561,203.200 153.312 C 204.735 153.045,207.363 152.015,206.400 152.058 C 206.070 152.073,205.260 152.268,204.600 152.493 M146.400 153.200 C 147.768 153.638,148.819 153.638,147.800 153.200 C 147.360 153.011,146.640 152.862,146.200 152.868 C 145.557 152.877,145.596 152.943,146.400 153.200 M161.929 153.900 C 169.260 153.961,181.140 153.961,188.329 153.900 C 195.518 153.839,189.520 153.789,175.000 153.789 C 160.480 153.789,154.598 153.839,161.929 153.900 M214.800 180.400 L 213.800 180.720 214.876 180.760 C 215.468 180.782,216.064 180.620,216.200 180.400 C 216.481 179.945,216.220 179.945,214.800 180.400 M206.783 183.325 C 204.596 184.435,201.350 186.633,200.956 187.271 C 200.799 187.525,201.825 186.923,203.235 185.934 C 204.646 184.945,206.475 183.826,207.300 183.449 C 208.125 183.071,208.800 182.681,208.800 182.581 C 208.800 182.310,208.744 182.330,206.783 183.325 M197.790 190.010 C 196.489 191.325,195.543 192.400,195.686 192.400 C 196.044 192.400,200.477 187.943,200.297 187.764 C 200.219 187.685,199.090 188.696,197.790 190.010 M219.000 191.696 C 217.076 192.068,215.785 192.494,214.305 193.247 C 213.923 193.441,213.419 193.600,213.183 193.600 C 210.128 193.600,203.104 201.430,201.053 207.124 L 200.000 210.048 200.091 243.324 L 200.183 276.600 200.402 243.000 L 200.621 209.400 201.567 207.000 C 202.087 205.680,202.847 204.122,203.256 203.538 C 203.665 202.954,204.000 202.368,204.000 202.235 C 204.000 201.201,208.998 196.551,211.771 195.006 C 217.142 192.011,214.570 192.200,250.000 192.200 L 281.800 192.200 284.374 193.152 C 292.577 196.187,297.879 202.538,299.443 211.200 C 300.235 215.592,300.231 276.047,299.438 280.400 C 297.539 290.818,290.364 297.883,279.967 299.572 C 275.786 300.252,223.427 300.135,219.600 299.438 C 209.160 297.535,202.255 290.547,200.593 280.200 L 200.079 277.000 200.040 279.234 C 199.894 287.423,207.174 296.470,216.200 299.317 C 220.597 300.704,279.403 300.704,283.800 299.317 C 291.111 297.011,297.011 291.111,299.317 283.800 C 300.412 280.329,300.733 213.008,299.674 209.021 C 298.293 203.821,294.871 198.801,290.800 196.001 C 290.030 195.472,289.310 194.930,289.200 194.797 C 288.534 193.993,283.917 192.316,280.469 191.626 C 277.738 191.080,221.863 191.143,219.000 191.696 M194.429 193.854 C 193.973 194.434,193.600 195.094,193.600 195.321 C 193.600 195.791,193.560 195.833,194.757 194.100 C 195.833 192.542,195.599 192.366,194.429 193.854 M189.400 203.600 C 189.250 204.073,189.217 204.550,189.327 204.660 C 189.437 204.770,189.650 204.473,189.800 204.000 C 189.950 203.527,189.983 203.050,189.873 202.940 C 189.763 202.830,189.550 203.127,189.400 203.600 M188.673 206.153 C 188.523 206.545,188.411 207.166,188.425 207.533 C 188.442 207.975,188.581 207.874,188.837 207.234 C 189.049 206.703,189.161 206.082,189.085 205.854 C 189.009 205.627,188.824 205.761,188.673 206.153 M187.859 210.688 C 187.721 211.519,187.647 224.440,187.693 239.400 L 187.777 266.600 187.989 238.000 C 188.105 222.270,188.179 209.349,188.154 209.288 C 188.129 209.226,187.996 209.856,187.859 210.688 M229.400 214.680 C 224.634 215.879,223.302 222.143,227.064 225.663 C 229.026 227.499,230.177 227.596,250.000 227.596 C 269.823 227.596,270.974 227.499,272.936 225.663 C 276.170 222.636,275.997 218.364,272.532 215.721 L 271.063 214.600 250.632 214.539 C 239.394 214.506,229.840 214.570,229.400 214.680 M272.136 216.124 C 275.397 218.612,275.570 222.321,272.566 225.325 C 271.093 226.798,269.873 226.868,248.126 226.726 L 228.852 226.600 227.610 225.410 C 225.273 223.170,224.733 221.216,225.767 218.741 C 227.400 214.832,227.602 214.801,250.832 214.908 L 270.663 215.000 272.136 216.124 M229.975 239.560 C 223.931 240.787,222.941 248.813,228.484 251.643 C 229.882 252.356,231.133 252.400,250.000 252.400 C 268.867 252.400,270.118 252.356,271.516 251.643 C 276.402 249.149,276.444 242.718,271.592 239.963 C 270.501 239.344,232.837 238.980,229.975 239.560 M271.283 240.500 C 275.521 242.929,275.905 248.087,272.041 250.686 L 270.682 251.600 250.121 251.600 C 228.340 251.600,228.332 251.599,226.800 249.732 C 225.372 247.990,224.674 244.773,225.600 244.200 C 225.820 244.064,226.000 243.685,226.000 243.358 C 226.000 242.737,227.293 241.340,228.624 240.524 C 229.771 239.820,270.057 239.797,271.283 240.500 M100.213 249.400 C 100.369 250.280,100.641 251.157,100.817 251.348 C 100.993 251.540,100.961 250.915,100.746 249.960 C 100.245 247.727,99.840 247.303,100.213 249.400 M102.000 254.110 C 102.000 254.424,102.854 256.054,103.200 256.400 C 103.310 256.510,104.028 257.410,104.795 258.400 C 106.185 260.195,107.943 261.872,109.159 262.565 C 109.512 262.766,108.836 262.058,107.659 260.991 C 106.481 259.924,104.726 257.872,103.759 256.430 C 102.791 254.988,102.000 253.944,102.000 254.110 M110.000 263.181 C 110.000 263.541,113.538 265.395,113.774 265.159 C 113.867 265.066,113.056 264.517,111.972 263.938 C 110.887 263.360,110.000 263.019,110.000 263.181 M229.400 264.680 C 224.634 265.879,223.302 272.143,227.064 275.663 C 229.026 277.499,230.177 277.596,250.000 277.596 C 269.823 277.596,270.974 277.499,272.936 275.663 C 276.170 272.636,275.997 268.364,272.532 265.721 L 271.063 264.600 250.632 264.539 C 239.394 264.506,229.840 264.570,229.400 264.680 M272.136 266.124 C 275.397 268.612,275.570 272.321,272.566 275.325 C 271.093 276.798,269.873 276.868,248.126 276.726 L 228.852 276.600 227.610 275.410 C 225.273 273.170,224.733 271.216,225.767 268.741 C 227.400 264.832,227.602 264.801,250.832 264.908 L 270.663 265.000 272.136 266.124 M114.553 265.486 C 115.075 266.008,117.828 266.787,119.000 266.744 C 120.051 266.705,120.001 266.662,118.600 266.395 C 117.720 266.227,116.391 265.895,115.646 265.657 C 114.901 265.419,114.409 265.342,114.553 265.486 M137.100 267.100 C 146.395 267.160,161.605 267.160,170.900 267.100 C 180.195 267.040,172.590 266.991,154.000 266.991 C 135.410 266.991,127.805 267.040,137.100 267.100 " stroke="none" fill="#b8ecf4" fill-rule="evenodd"></path></g></svg>