<svg id="svg" version="1.1" xmlns="http://www.w3.org/2000/svg" xmlns:xlink="http://www.w3.org/1999/xlink" width="400" height="400" viewBox="0, 0, 400,400"><g id="svgg"><path id="path0" d="M166.305 134.009 C 159.297 135.204,156.625 137.164,145.385 149.356 C 142.973 151.972,140.190 154.958,139.200 155.992 C 138.210 157.026,135.600 159.826,133.400 162.215 C 131.200 164.604,128.860 167.124,128.200 167.815 C 127.540 168.506,125.110 171.121,122.800 173.626 C 120.490 176.131,118.240 178.557,117.800 179.018 C 117.360 179.479,115.020 181.984,112.600 184.585 C 110.180 187.186,106.966 190.593,105.458 192.157 C 98.969 198.886,98.859 200.977,104.674 207.044 C 106.173 208.608,108.550 211.128,109.956 212.644 C 111.362 214.160,113.706 216.660,115.165 218.200 C 116.624 219.740,119.704 223.066,122.009 225.590 C 124.314 228.115,126.830 230.821,127.600 231.604 C 128.370 232.387,129.990 234.105,131.200 235.421 C 145.994 251.515,156.420 262.400,157.043 262.400 C 157.171 262.400,157.754 262.730,158.338 263.134 C 159.721 264.089,162.448 265.162,165.200 265.834 C 168.525 266.646,278.595 266.654,281.680 265.843 C 292.234 263.067,298.174 256.356,299.564 245.636 C 300.153 241.091,300.169 158.915,299.581 154.529 C 298.751 148.337,297.012 144.619,293.019 140.500 C 291.472 138.905,290.053 137.600,289.865 137.600 C 289.677 137.600,289.030 137.249,288.427 136.819 C 287.823 136.389,285.906 135.534,284.165 134.919 L 281.000 133.800 224.600 133.743 C 193.580 133.712,167.347 133.831,166.305 134.009 M205.947 163.173 C 206.781 163.598,209.608 166.239,212.231 169.040 C 214.854 171.842,217.360 174.518,217.800 174.987 C 218.240 175.455,219.668 177.000,220.974 178.419 C 222.280 179.839,224.680 182.388,226.308 184.084 L 229.268 187.169 230.134 186.265 C 230.610 185.768,231.990 184.288,233.200 182.976 C 252.884 161.637,252.029 162.400,256.249 162.400 C 263.191 162.400,267.624 170.911,263.283 175.903 C 260.510 179.091,251.634 188.718,243.660 197.187 C 240.777 200.249,240.577 199.709,247.135 206.600 C 248.601 208.140,251.870 211.644,254.400 214.387 C 256.930 217.130,259.767 220.190,260.706 221.187 C 267.619 228.537,265.201 237.600,256.326 237.600 C 252.205 237.600,252.677 237.979,240.360 224.775 C 237.808 222.039,234.748 218.738,233.560 217.440 C 232.372 216.142,230.926 214.571,230.348 213.949 L 229.296 212.818 225.948 216.333 C 223.096 219.328,217.726 225.099,213.459 229.755 C 206.933 236.877,205.882 237.600,202.053 237.600 C 195.637 237.600,191.395 230.750,194.447 225.316 C 195.140 224.082,205.776 212.206,209.596 208.400 C 210.148 207.850,212.113 205.725,213.963 203.679 L 217.325 199.958 215.726 198.279 C 214.846 197.355,213.423 195.806,212.563 194.836 C 211.703 193.866,210.460 192.511,209.800 191.825 C 208.730 190.712,202.794 184.340,197.366 178.477 C 194.422 175.297,193.600 173.617,193.600 170.784 C 193.600 164.514,200.381 160.334,205.947 163.173 " stroke="none" fill="#bc64fc" fill-rule="evenodd"></path><path id="path1" d="M61.500 0.292 C 60.235 0.373,59.200 0.611,59.200 0.820 C 59.200 1.029,58.480 1.200,57.600 1.200 C 56.720 1.200,56.000 1.380,56.000 1.600 C 56.000 1.820,55.460 2.000,54.800 2.000 C 54.140 2.000,53.600 2.180,53.600 2.400 C 53.600 2.620,52.869 2.800,51.976 2.800 C 50.996 2.800,50.451 2.958,50.600 3.200 C 50.738 3.424,50.427 3.600,49.891 3.600 C 49.366 3.600,48.064 4.041,46.998 4.581 C 45.933 5.120,44.885 5.452,44.669 5.319 C 44.450 5.184,44.403 5.281,44.562 5.538 C 44.749 5.841,44.495 6.000,43.824 6.000 C 43.261 6.000,42.800 6.180,42.800 6.400 C 42.800 6.620,42.440 6.800,42.000 6.800 C 41.560 6.800,41.199 6.935,41.197 7.100 C 41.193 7.459,39.256 8.400,38.520 8.400 C 38.234 8.400,38.000 8.559,38.000 8.753 C 38.000 8.948,37.685 9.206,37.300 9.328 C 36.319 9.637,33.428 11.338,33.267 11.700 C 33.193 11.865,32.878 12.000,32.567 12.000 C 32.255 12.000,32.000 12.180,32.000 12.400 C 32.000 12.620,31.745 12.800,31.433 12.800 C 31.122 12.800,30.807 12.963,30.733 13.161 C 30.563 13.623,26.331 16.800,25.887 16.800 C 25.703 16.800,25.664 16.980,25.800 17.200 C 25.936 17.420,25.873 17.600,25.660 17.600 C 25.046 17.600,16.768 26.105,15.000 28.552 C 14.120 29.770,13.265 30.774,13.100 30.783 C 12.935 30.792,12.800 31.094,12.800 31.453 C 12.800 31.812,12.469 32.397,12.064 32.753 C 11.660 33.109,10.625 34.750,9.764 36.400 C 8.904 38.050,8.065 39.460,7.900 39.533 C 7.735 39.607,7.600 40.012,7.600 40.433 C 7.600 40.855,7.420 41.200,7.200 41.200 C 6.980 41.200,6.800 41.434,6.800 41.720 C 6.800 42.550,5.838 44.393,5.400 44.403 C 5.180 44.408,5.270 44.587,5.600 44.800 C 6.000 45.058,6.033 45.190,5.700 45.194 C 5.425 45.197,5.200 45.470,5.200 45.800 C 5.200 46.130,5.020 46.400,4.800 46.400 C 4.580 46.400,4.400 46.749,4.400 47.176 C 4.400 47.603,4.220 48.064,4.000 48.200 C 3.780 48.336,3.600 48.987,3.600 49.647 C 3.600 50.345,3.433 50.744,3.200 50.600 C 2.958 50.451,2.800 50.996,2.800 51.976 C 2.800 52.869,2.620 53.600,2.400 53.600 C 2.180 53.600,2.000 54.140,2.000 54.800 C 2.000 55.460,1.857 56.000,1.682 56.000 C 1.507 56.000,1.318 56.670,1.263 57.488 C 1.208 58.306,0.946 59.110,0.682 59.273 C -0.021 59.707,-0.021 340.293,0.682 340.727 C 0.946 340.890,1.208 341.694,1.263 342.512 C 1.318 343.330,1.507 344.000,1.682 344.000 C 1.857 344.000,2.000 344.540,2.000 345.200 C 2.000 345.860,2.143 346.400,2.318 346.400 C 2.493 346.400,2.681 347.075,2.736 347.900 C 2.790 348.725,3.007 349.460,3.218 349.533 C 3.428 349.607,3.600 350.091,3.600 350.610 C 3.600 351.128,3.780 351.664,4.000 351.800 C 4.220 351.936,4.400 352.382,4.400 352.790 C 4.400 353.199,4.588 353.596,4.818 353.673 C 5.048 353.749,5.266 354.214,5.303 354.706 C 5.340 355.198,5.512 355.600,5.685 355.600 C 5.858 355.600,6.000 355.834,6.000 356.120 C 6.000 356.856,6.941 358.793,7.300 358.797 C 7.465 358.799,7.600 359.160,7.600 359.600 C 7.600 360.040,7.780 360.400,8.000 360.400 C 8.220 360.400,8.400 360.760,8.400 361.200 C 8.400 361.640,8.535 362.001,8.700 362.003 C 8.865 362.005,9.201 362.410,9.448 362.903 C 10.917 365.848,11.419 366.654,12.072 367.123 C 12.472 367.410,12.800 367.913,12.800 368.240 C 12.800 368.856,13.300 369.584,14.500 370.717 C 14.885 371.080,15.200 371.526,15.200 371.708 C 15.200 371.890,15.676 372.480,16.258 373.019 C 16.841 373.559,17.224 374.000,17.110 374.000 C 16.709 374.000,24.265 381.500,25.137 381.966 C 25.624 382.227,25.917 382.611,25.788 382.820 C 25.658 383.029,25.823 383.200,26.154 383.200 C 26.484 383.200,26.991 383.515,27.279 383.900 C 27.939 384.781,30.224 386.400,30.807 386.400 C 31.049 386.400,31.136 386.580,31.000 386.800 C 30.864 387.020,30.988 387.200,31.276 387.201 C 31.564 387.201,32.430 387.741,33.200 388.400 C 33.970 389.059,34.825 389.599,35.100 389.599 C 35.375 389.600,35.600 389.780,35.600 390.000 C 35.600 390.220,35.960 390.400,36.400 390.400 C 36.840 390.400,37.200 390.580,37.200 390.800 C 37.200 391.020,37.335 391.181,37.500 391.157 C 38.104 391.070,39.600 391.703,39.600 392.047 C 39.600 392.241,40.050 392.400,40.600 392.400 C 41.150 392.400,41.600 392.580,41.600 392.800 C 41.600 393.020,41.870 393.200,42.200 393.200 C 42.530 393.200,42.800 393.380,42.800 393.600 C 42.800 393.820,43.261 394.000,43.824 394.000 C 44.387 394.000,44.759 394.143,44.651 394.317 C 44.544 394.491,44.845 394.663,45.322 394.699 C 45.798 394.735,46.251 394.952,46.327 395.182 C 46.404 395.412,46.801 395.600,47.210 395.600 C 47.618 395.600,48.064 395.780,48.200 396.000 C 48.336 396.220,48.987 396.400,49.647 396.400 C 50.345 396.400,50.744 396.567,50.600 396.800 C 50.456 397.033,50.855 397.200,51.553 397.200 C 52.213 397.200,52.864 397.380,53.000 397.600 C 53.136 397.820,53.867 398.000,54.624 398.000 C 55.381 398.000,56.000 398.180,56.000 398.400 C 56.000 398.620,56.821 398.800,57.824 398.800 C 58.827 398.800,59.547 398.962,59.424 399.161 C 58.926 399.967,73.741 400.041,204.000 399.884 C 341.652 399.719,340.800 399.723,340.800 399.133 C 340.800 398.950,341.419 398.800,342.176 398.800 C 342.933 398.800,343.664 398.620,343.800 398.400 C 343.936 398.180,344.476 398.000,345.000 398.000 C 345.524 398.000,346.064 397.820,346.200 397.600 C 346.336 397.380,347.157 397.200,348.024 397.200 C 348.891 397.200,349.600 397.020,349.600 396.800 C 349.600 396.580,350.050 396.400,350.600 396.400 C 351.150 396.400,351.600 396.220,351.600 396.000 C 351.600 395.780,351.872 395.600,352.205 395.600 C 352.538 395.600,353.123 395.441,353.505 395.247 C 354.178 394.904,354.750 394.659,357.500 393.536 C 358.215 393.244,358.800 392.869,358.800 392.702 C 358.800 392.536,359.160 392.400,359.600 392.400 C 360.040 392.400,360.400 392.220,360.400 392.000 C 360.400 391.780,360.687 391.600,361.038 391.600 C 361.721 391.600,363.856 390.506,364.695 389.726 C 364.975 389.466,365.564 389.138,366.002 388.999 C 366.441 388.860,366.800 388.578,366.800 388.373 C 366.800 388.168,367.070 388.000,367.400 388.000 C 367.730 388.000,368.000 387.820,368.000 387.600 C 368.000 387.380,368.270 387.200,368.600 387.200 C 368.930 387.200,369.200 387.020,369.200 386.800 C 369.200 386.580,369.448 386.400,369.752 386.400 C 370.055 386.400,371.045 385.680,371.952 384.800 C 372.859 383.920,373.693 383.200,373.805 383.200 C 374.212 383.200,382.400 374.798,382.400 374.381 C 382.400 374.146,382.580 374.064,382.800 374.200 C 383.020 374.336,383.200 374.239,383.200 373.984 C 383.200 373.729,383.759 372.999,384.442 372.360 C 385.126 371.722,385.531 371.195,385.342 371.188 C 385.154 371.181,385.315 370.992,385.700 370.768 C 386.085 370.544,386.400 370.099,386.400 369.780 C 386.400 369.461,386.580 369.200,386.800 369.200 C 387.020 369.200,387.200 368.930,387.200 368.600 C 387.200 368.270,387.380 368.000,387.600 368.000 C 387.820 368.000,388.000 367.730,388.000 367.400 C 388.000 367.070,388.180 366.800,388.400 366.800 C 388.620 366.800,388.800 366.564,388.800 366.275 C 388.800 365.987,389.115 365.397,389.500 364.963 C 390.502 363.836,391.600 361.784,391.600 361.038 C 391.600 360.687,391.780 360.400,392.000 360.400 C 392.220 360.400,392.404 360.085,392.409 359.700 C 392.414 359.315,392.770 358.550,393.200 358.000 C 393.630 357.450,393.986 356.773,393.991 356.495 C 393.996 356.217,394.157 355.677,394.350 355.295 C 395.914 352.189,396.400 351.021,396.400 350.362 C 396.400 349.943,396.543 349.600,396.718 349.600 C 396.893 349.600,397.081 348.925,397.136 348.100 C 397.190 347.275,397.407 346.540,397.618 346.467 C 397.828 346.393,398.000 345.819,398.000 345.190 C 398.000 344.562,398.180 343.936,398.400 343.800 C 398.620 343.664,398.800 342.933,398.800 342.176 C 398.800 341.419,398.950 340.800,399.133 340.800 C 399.725 340.800,399.721 341.546,399.885 204.000 C 400.040 73.712,399.966 58.926,399.161 59.424 C 398.864 59.608,398.577 57.410,398.753 56.300 C 398.779 56.135,398.620 56.000,398.400 56.000 C 398.180 56.000,398.000 55.538,398.000 54.974 C 398.000 54.409,397.819 53.609,397.597 53.195 C 397.376 52.781,397.157 51.983,397.110 51.421 C 397.064 50.860,396.885 50.400,396.713 50.400 C 396.541 50.400,396.400 49.961,396.400 49.424 C 396.400 48.887,396.220 48.336,396.000 48.200 C 395.780 48.064,395.600 47.603,395.600 47.176 C 395.600 46.749,395.420 46.400,395.200 46.400 C 394.980 46.400,394.800 46.135,394.800 45.812 C 394.800 45.489,394.440 44.583,394.000 43.800 C 393.560 43.017,393.200 42.188,393.200 41.959 C 393.200 41.730,392.928 41.271,392.596 40.939 C 392.264 40.607,392.095 40.170,392.220 39.968 C 392.345 39.765,392.257 39.600,392.024 39.600 C 391.791 39.600,391.600 39.313,391.600 38.962 C 391.600 38.159,390.367 35.907,389.692 35.475 C 389.412 35.297,389.288 34.982,389.415 34.775 C 389.543 34.569,389.457 34.400,389.224 34.400 C 388.991 34.400,388.800 34.130,388.800 33.800 C 388.800 33.470,388.650 33.200,388.468 33.200 C 388.285 33.200,387.880 32.705,387.568 32.100 C 387.255 31.495,386.685 30.765,386.300 30.477 C 385.915 30.190,385.600 29.710,385.600 29.411 C 385.600 29.112,385.060 28.358,384.400 27.735 C 383.740 27.112,383.200 26.462,383.200 26.291 C 383.200 25.797,374.073 16.860,373.824 17.109 C 373.701 17.233,373.600 17.135,373.600 16.894 C 373.600 16.652,373.226 16.335,372.770 16.190 C 372.313 16.046,372.042 15.825,372.167 15.699 C 372.418 15.449,370.753 14.157,370.348 14.287 C 370.209 14.332,369.776 14.015,369.386 13.584 C 368.995 13.153,368.468 12.800,368.214 12.800 C 367.960 12.800,367.178 12.239,366.476 11.553 C 365.774 10.866,365.200 10.429,365.200 10.580 C 365.200 10.731,364.677 10.482,364.038 10.027 C 363.399 9.572,362.679 9.200,362.438 9.200 C 362.197 9.200,362.000 9.020,362.000 8.800 C 362.000 8.580,361.640 8.400,361.200 8.400 C 360.760 8.400,360.400 8.220,360.400 8.000 C 360.400 7.780,360.040 7.600,359.600 7.600 C 359.160 7.600,358.800 7.420,358.800 7.200 C 358.800 6.980,358.587 6.800,358.326 6.800 C 357.854 6.800,355.581 5.824,352.662 4.367 C 351.816 3.945,350.796 3.600,350.396 3.600 C 349.995 3.600,349.607 3.428,349.533 3.218 C 349.460 3.007,348.725 2.790,347.900 2.736 C 347.075 2.681,346.400 2.493,346.400 2.318 C 346.400 2.143,345.860 2.000,345.200 2.000 C 344.540 2.000,344.000 1.820,344.000 1.600 C 344.000 1.380,343.295 1.200,342.433 1.200 C 341.536 1.200,340.796 0.987,340.700 0.700 C 340.544 0.233,68.615 -0.165,61.500 0.292 M284.573 134.110 C 292.695 137.333,298.152 143.418,299.967 151.277 C 300.573 153.905,300.573 246.095,299.967 248.723 C 298.679 254.297,295.769 258.636,290.449 262.912 C 289.323 263.817,285.539 265.643,283.200 266.410 C 280.588 267.266,166.786 267.303,164.000 266.448 C 158.636 264.802,155.268 262.494,150.160 256.965 C 144.889 251.259,145.008 251.387,141.800 247.976 C 136.262 242.089,129.250 234.555,127.145 232.232 C 125.965 230.930,124.280 229.125,123.400 228.220 C 122.520 227.316,119.820 224.423,117.400 221.792 C 114.980 219.160,112.550 216.555,112.000 216.002 C 111.450 215.449,108.930 212.750,106.400 210.003 C 103.870 207.257,101.550 204.745,101.244 204.421 C 98.694 201.716,99.163 197.808,102.451 194.373 C 103.413 193.368,105.089 191.568,106.175 190.373 C 107.261 189.178,109.331 186.933,110.775 185.385 C 120.975 174.446,123.159 172.110,124.400 170.803 C 125.170 169.993,126.586 168.446,127.546 167.365 C 128.506 166.284,130.936 163.681,132.946 161.579 C 134.956 159.478,137.570 156.688,138.756 155.379 C 139.942 154.071,142.102 151.730,143.556 150.178 C 145.010 148.626,147.997 145.409,150.193 143.030 C 156.124 136.604,160.760 133.854,167.000 133.062 C 167.660 132.978,193.760 132.932,225.000 132.960 L 281.800 133.010 284.573 134.110 M199.600 163.356 C 197.544 164.008,195.104 166.637,194.456 168.900 C 193.386 172.636,194.192 173.996,203.171 183.600 C 205.742 186.350,208.645 189.488,209.623 190.574 C 210.600 191.660,212.883 194.090,214.695 195.974 C 216.508 197.858,217.990 199.670,217.990 200.000 C 217.990 200.330,216.508 202.142,214.695 204.026 C 212.883 205.910,210.603 208.340,209.628 209.426 C 208.654 210.512,205.845 213.560,203.387 216.200 C 196.160 223.962,195.041 225.359,194.456 227.349 C 192.828 232.887,198.627 238.409,204.218 236.647 C 206.803 235.832,207.464 235.206,218.854 222.771 C 220.754 220.697,223.110 218.157,224.089 217.127 C 225.068 216.097,226.405 214.644,227.060 213.899 C 229.129 211.541,229.092 211.523,234.839 217.719 C 254.022 238.400,253.742 238.171,258.086 236.794 C 265.053 234.586,266.063 227.686,260.274 221.834 C 259.133 220.681,257.300 218.744,256.200 217.530 C 253.722 214.796,246.247 206.751,242.911 203.228 C 240.638 200.828,239.913 199.485,240.700 199.133 C 241.006 198.996,244.478 195.310,248.362 191.000 C 251.538 187.475,258.745 179.733,260.672 177.775 C 266.040 172.323,264.815 165.337,258.120 163.217 C 256.368 162.662,253.233 163.166,252.145 164.177 C 251.894 164.410,251.354 164.885,250.945 165.233 C 250.125 165.928,241.695 174.868,237.396 179.600 C 228.978 188.865,229.339 188.623,227.288 186.355 C 225.810 184.720,224.777 183.607,220.454 178.993 C 219.215 177.670,217.133 175.420,215.830 173.993 C 210.789 168.478,206.776 164.525,205.711 164.027 C 205.100 163.741,204.287 163.348,203.905 163.153 C 203.030 162.708,201.404 162.785,199.600 163.356 " stroke="none" fill="#f4e4fc" fill-rule="evenodd"></path><path id="path2" d="M167.505 133.483 C 168.002 133.579,168.722 133.575,169.105 133.475 C 169.487 133.375,169.080 133.296,168.200 133.301 C 167.320 133.305,167.007 133.387,167.505 133.483 M277.905 133.483 C 278.402 133.579,279.122 133.575,279.505 133.475 C 279.887 133.375,279.480 133.296,278.600 133.301 C 277.720 133.305,277.407 133.387,277.905 133.483 M152.589 140.900 L 149.800 143.800 152.700 141.011 C 154.295 139.477,155.600 138.172,155.600 138.111 C 155.600 137.817,155.180 138.206,152.589 140.900 M146.975 146.900 L 145.800 148.200 147.100 147.025 C 148.312 145.930,148.584 145.600,148.275 145.600 C 148.206 145.600,147.621 146.185,146.975 146.900 M140.778 153.500 L 139.400 155.000 140.900 153.622 C 141.725 152.863,142.400 152.188,142.400 152.122 C 142.400 151.816,142.062 152.104,140.778 153.500 M136.175 158.500 L 135.000 159.800 136.300 158.625 C 137.015 157.979,137.600 157.394,137.600 157.325 C 137.600 157.016,137.270 157.288,136.175 158.500 M201.505 162.683 C 202.002 162.779,202.722 162.775,203.105 162.675 C 203.487 162.575,203.080 162.496,202.200 162.501 C 201.320 162.505,201.007 162.587,201.505 162.683 M255.505 162.683 C 256.002 162.779,256.722 162.775,257.105 162.675 C 257.487 162.575,257.080 162.496,256.200 162.501 C 255.320 162.505,255.007 162.587,255.505 162.683 M129.775 165.300 L 128.600 166.600 129.900 165.425 C 131.112 164.330,131.384 164.000,131.075 164.000 C 131.006 164.000,130.421 164.585,129.775 165.300 M208.383 165.700 C 209.364 166.745,210.219 167.600,210.283 167.600 C 210.584 167.600,210.266 167.241,208.500 165.583 L 206.600 163.800 208.383 165.700 M249.385 166.100 L 247.400 168.200 249.500 166.215 C 251.451 164.371,251.783 164.000,251.485 164.000 C 251.422 164.000,250.477 164.945,249.385 166.100 M124.581 170.900 L 123.000 172.600 124.700 171.019 C 126.281 169.548,126.584 169.200,126.281 169.200 C 126.216 169.200,125.451 169.965,124.581 170.900 M243.785 172.100 L 241.800 174.200 243.900 172.215 C 245.851 170.371,246.183 170.000,245.885 170.000 C 245.822 170.000,244.877 170.945,243.785 172.100 M214.000 171.725 C 214.000 171.794,214.585 172.379,215.300 173.025 L 216.600 174.200 215.425 172.900 C 214.330 171.688,214.000 171.416,214.000 171.725 M118.981 176.900 L 117.400 178.600 119.100 177.019 C 120.681 175.548,120.984 175.200,120.681 175.200 C 120.616 175.200,119.851 175.965,118.981 176.900 M219.183 177.300 C 220.164 178.345,221.019 179.200,221.083 179.200 C 221.384 179.200,221.066 178.841,219.300 177.183 L 217.400 175.400 219.183 177.300 M238.575 177.700 L 237.400 179.000 238.700 177.825 C 239.415 177.179,240.000 176.594,240.000 176.525 C 240.000 176.216,239.670 176.488,238.575 177.700 M234.181 182.500 L 232.600 184.200 234.300 182.619 C 235.881 181.148,236.184 180.800,235.881 180.800 C 235.816 180.800,235.051 181.565,234.181 182.500 M256.581 182.500 L 255.000 184.200 256.700 182.619 C 258.281 181.148,258.584 180.800,258.281 180.800 C 258.216 180.800,257.451 181.565,256.581 182.500 M113.375 182.900 L 112.200 184.200 113.500 183.025 C 114.712 181.930,114.984 181.600,114.675 181.600 C 114.606 181.600,114.021 182.185,113.375 182.900 M200.800 181.725 C 200.800 181.794,201.385 182.379,202.100 183.025 L 203.400 184.200 202.225 182.900 C 201.130 181.688,200.800 181.416,200.800 181.725 M225.000 183.600 C 226.083 184.700,227.060 185.600,227.170 185.600 C 227.280 185.600,226.483 184.700,225.400 183.600 C 224.317 182.500,223.340 181.600,223.230 181.600 C 223.120 181.600,223.917 182.500,225.000 183.600 M108.778 187.900 L 107.400 189.400 108.900 188.022 C 109.725 187.263,110.400 186.588,110.400 186.522 C 110.400 186.216,110.062 186.504,108.778 187.900 M205.600 186.925 C 205.600 186.994,206.185 187.579,206.900 188.225 L 208.200 189.400 207.025 188.100 C 205.930 186.888,205.600 186.616,205.600 186.925 M250.581 188.900 L 249.000 190.600 250.700 189.019 C 252.281 187.548,252.584 187.200,252.281 187.200 C 252.216 187.200,251.451 187.965,250.581 188.900 M246.975 192.900 L 245.800 194.200 247.100 193.025 C 247.815 192.379,248.400 191.794,248.400 191.725 C 248.400 191.416,248.070 191.688,246.975 192.900 M211.983 193.700 C 212.964 194.745,213.819 195.600,213.883 195.600 C 214.184 195.600,213.866 195.241,212.100 193.583 L 210.200 191.800 211.983 193.700 M102.981 194.100 L 101.400 195.800 103.100 194.219 C 104.035 193.349,104.800 192.584,104.800 192.519 C 104.800 192.216,104.452 192.519,102.981 194.100 M213.375 204.900 L 212.200 206.200 213.500 205.025 C 214.215 204.379,214.800 203.794,214.800 203.725 C 214.800 203.416,214.470 203.688,213.375 204.900 M245.200 205.325 C 245.200 205.394,245.785 205.979,246.500 206.625 L 247.800 207.800 246.625 206.500 C 245.530 205.288,245.200 205.016,245.200 205.325 M250.000 210.600 C 250.746 211.370,251.447 212.000,251.557 212.000 C 251.667 212.000,251.146 211.370,250.400 210.600 C 249.654 209.830,248.953 209.200,248.843 209.200 C 248.733 209.200,249.254 209.830,250.000 210.600 M206.981 211.700 L 205.400 213.400 207.100 211.819 C 208.681 210.348,208.984 210.000,208.681 210.000 C 208.616 210.000,207.851 210.765,206.981 211.700 M225.381 216.100 L 223.800 217.800 225.500 216.219 C 226.435 215.349,227.200 214.584,227.200 214.519 C 227.200 214.216,226.852 214.519,225.381 216.100 M113.000 216.800 C 113.859 217.680,114.652 218.400,114.762 218.400 C 114.872 218.400,114.259 217.680,113.400 216.800 C 112.541 215.920,111.748 215.200,111.638 215.200 C 111.528 215.200,112.141 215.920,113.000 216.800 M202.575 216.500 L 201.400 217.800 202.700 216.625 C 203.912 215.530,204.184 215.200,203.875 215.200 C 203.806 215.200,203.221 215.785,202.575 216.500 M233.400 216.800 C 234.259 217.680,235.052 218.400,235.162 218.400 C 235.272 218.400,234.659 217.680,233.800 216.800 C 232.941 215.920,232.148 215.200,232.038 215.200 C 231.928 215.200,232.541 215.920,233.400 216.800 M255.800 216.800 C 256.659 217.680,257.452 218.400,257.562 218.400 C 257.672 218.400,257.059 217.680,256.200 216.800 C 255.341 215.920,254.548 215.200,254.438 215.200 C 254.328 215.200,254.941 215.920,255.800 216.800 M237.983 221.700 C 238.964 222.745,239.819 223.600,239.883 223.600 C 240.184 223.600,239.866 223.241,238.100 221.583 L 236.200 219.800 237.983 221.700 M260.600 222.000 C 261.459 222.880,262.252 223.600,262.362 223.600 C 262.472 223.600,261.859 222.880,261.000 222.000 C 260.141 221.120,259.348 220.400,259.238 220.400 C 259.128 220.400,259.741 221.120,260.600 222.000 M118.383 222.500 C 120.041 224.266,120.400 224.584,120.400 224.283 C 120.400 224.219,119.545 223.364,118.500 222.383 L 116.600 220.600 118.383 222.500 M219.578 222.300 L 218.200 223.800 219.700 222.422 C 221.096 221.138,221.384 220.800,221.078 220.800 C 221.012 220.800,220.337 221.475,219.578 222.300 M215.381 226.900 L 213.800 228.600 215.500 227.019 C 217.081 225.548,217.384 225.200,217.081 225.200 C 217.016 225.200,216.251 225.965,215.381 226.900 M243.600 227.800 C 244.795 229.010,245.863 230.000,245.973 230.000 C 246.083 230.000,245.195 229.010,244.000 227.800 C 242.805 226.590,241.737 225.600,241.627 225.600 C 241.517 225.600,242.405 226.590,243.600 227.800 M123.583 228.100 C 125.241 229.866,125.600 230.184,125.600 229.883 C 125.600 229.819,124.745 228.964,123.700 227.983 L 121.800 226.200 123.583 228.100 M247.983 232.500 C 248.964 233.545,249.819 234.400,249.883 234.400 C 250.184 234.400,249.866 234.041,248.100 232.383 L 246.200 230.600 247.983 232.500 M208.786 233.900 L 206.600 236.200 208.900 234.014 C 211.037 231.982,211.383 231.600,211.086 231.600 C 211.024 231.600,209.989 232.635,208.786 233.900 M129.400 234.400 C 130.259 235.280,131.052 236.000,131.162 236.000 C 131.272 236.000,130.659 235.280,129.800 234.400 C 128.941 233.520,128.148 232.800,128.038 232.800 C 127.928 232.800,128.541 233.520,129.400 234.400 M201.100 237.482 C 201.595 237.578,202.405 237.578,202.900 237.482 C 203.395 237.387,202.990 237.309,202.000 237.309 C 201.010 237.309,200.605 237.387,201.100 237.482 M255.500 237.482 C 255.995 237.578,256.805 237.578,257.300 237.482 C 257.795 237.387,257.390 237.309,256.400 237.309 C 255.410 237.309,255.005 237.387,255.500 237.482 M134.200 239.600 C 135.059 240.480,135.852 241.200,135.962 241.200 C 136.072 241.200,135.459 240.480,134.600 239.600 C 133.741 238.720,132.948 238.000,132.838 238.000 C 132.728 238.000,133.341 238.720,134.200 239.600 M140.000 245.800 C 140.746 246.570,141.447 247.200,141.557 247.200 C 141.667 247.200,141.146 246.570,140.400 245.800 C 139.654 245.030,138.953 244.400,138.843 244.400 C 138.733 244.400,139.254 245.030,140.000 245.800 M145.800 252.000 C 146.659 252.880,147.452 253.600,147.562 253.600 C 147.672 253.600,147.059 252.880,146.200 252.000 C 145.341 251.120,144.548 250.400,144.438 250.400 C 144.328 250.400,144.941 251.120,145.800 252.000 M150.600 257.200 C 151.459 258.080,152.252 258.800,152.362 258.800 C 152.472 258.800,151.859 258.080,151.000 257.200 C 150.141 256.320,149.348 255.600,149.238 255.600 C 149.128 255.600,149.741 256.320,150.600 257.200 M278.900 266.676 C 279.285 266.776,279.915 266.776,280.300 266.676 C 280.685 266.575,280.370 266.493,279.600 266.493 C 278.830 266.493,278.515 266.575,278.900 266.676 " stroke="none" fill="#e2b7fc" fill-rule="evenodd"></path><path id="path3" d="M196.531 133.500 C 211.453 133.558,235.753 133.558,250.531 133.500 C 265.309 133.442,253.100 133.394,223.400 133.394 C 193.700 133.394,181.609 133.442,196.531 133.500 M164.400 134.003 C 163.990 134.270,164.435 134.314,165.800 134.141 C 166.900 134.001,167.875 133.823,167.967 133.744 C 168.364 133.401,164.941 133.650,164.400 134.003 M281.408 134.188 C 282.732 134.476,284.514 135.004,285.369 135.361 C 286.224 135.718,287.010 135.923,287.117 135.816 C 287.548 135.385,281.878 133.598,280.200 133.636 C 279.410 133.654,279.822 133.843,281.408 134.188 M158.600 136.270 C 157.410 136.885,154.896 139.023,152.391 141.551 C 146.459 147.539,137.650 156.971,137.822 157.150 C 137.986 157.320,139.168 156.099,145.372 149.354 C 152.564 141.534,156.427 137.893,159.000 136.511 C 160.320 135.802,161.220 135.225,161.000 135.229 C 160.780 135.234,159.700 135.702,158.600 136.270 M288.400 136.800 C 288.950 137.230,289.580 137.582,289.800 137.582 C 290.020 137.582,289.750 137.230,289.200 136.800 C 288.650 136.370,288.020 136.018,287.800 136.018 C 287.580 136.018,287.850 136.370,288.400 136.800 M290.400 137.678 C 290.400 137.760,291.626 139.081,293.124 140.613 C 294.692 142.218,296.326 144.381,296.977 145.713 C 297.598 146.986,298.195 147.939,298.302 147.831 C 298.617 147.516,296.009 143.141,294.443 141.358 C 293.066 139.790,290.400 137.364,290.400 137.678 M298.434 148.800 C 298.446 149.130,298.611 149.760,298.800 150.200 L 299.144 151.000 299.166 150.200 C 299.178 149.760,299.013 149.130,298.800 148.800 C 298.455 148.267,298.415 148.267,298.434 148.800 M299.477 153.600 C 299.603 155.030,299.772 156.275,299.853 156.367 C 300.142 156.695,299.914 152.980,299.584 152.000 C 299.374 151.373,299.334 151.970,299.477 153.600 M132.331 162.821 C 129.619 165.692,127.340 168.257,127.266 168.521 C 127.192 168.784,127.702 168.370,128.400 167.600 C 130.017 165.814,133.625 161.948,135.959 159.500 C 136.955 158.455,137.655 157.600,137.516 157.600 C 137.376 157.600,135.042 159.949,132.331 162.821 M199.000 162.800 C 198.708 163.273,199.099 163.273,200.200 162.800 C 200.971 162.469,200.969 162.455,200.124 162.428 C 199.642 162.413,199.136 162.580,199.000 162.800 M253.000 162.800 C 252.708 163.273,253.099 163.273,254.200 162.800 C 254.971 162.469,254.969 162.455,254.124 162.428 C 253.642 162.413,253.136 162.580,253.000 162.800 M258.200 162.800 C 259.301 163.273,259.692 163.273,259.400 162.800 C 259.264 162.580,258.758 162.413,258.276 162.428 C 257.431 162.455,257.429 162.469,258.200 162.800 M196.015 164.881 C 195.127 165.805,194.402 166.750,194.404 166.981 C 194.407 167.211,194.860 166.828,195.411 166.128 C 195.962 165.429,196.905 164.490,197.507 164.041 C 198.108 163.592,198.382 163.220,198.115 163.213 C 197.848 163.206,196.903 163.956,196.015 164.881 M207.850 165.033 C 208.978 166.115,211.408 168.622,213.250 170.605 C 215.093 172.588,218.865 176.638,221.632 179.605 C 224.400 182.572,227.234 185.630,227.929 186.400 L 229.194 187.800 232.897 183.812 C 234.934 181.618,237.800 178.559,239.268 177.013 C 240.735 175.467,241.871 174.137,241.792 174.059 C 241.617 173.883,240.983 174.531,235.400 180.596 C 232.980 183.224,230.610 185.778,230.134 186.272 L 229.268 187.169 226.308 184.084 C 224.680 182.388,222.280 179.839,220.974 178.419 C 219.668 177.000,218.240 175.455,217.800 174.987 C 217.360 174.518,214.858 171.846,212.239 169.049 C 209.621 166.252,207.101 163.761,206.639 163.514 C 206.178 163.268,206.723 163.951,207.850 165.033 M248.393 166.700 C 243.613 171.683,241.305 174.308,244.607 171.007 C 250.912 164.702,252.345 163.200,252.055 163.200 C 251.887 163.200,250.239 164.775,248.393 166.700 M260.794 163.982 C 261.341 164.402,261.868 164.666,261.965 164.569 C 262.191 164.342,260.729 163.227,260.200 163.222 C 259.980 163.220,260.247 163.561,260.794 163.982 M262.400 164.945 C 262.400 165.128,262.782 165.813,263.248 166.468 C 265.613 169.789,264.655 173.941,260.463 178.538 C 256.209 183.203,248.877 191.083,244.700 195.479 C 240.008 200.417,240.046 199.600,244.300 204.111 C 246.225 206.153,248.880 208.996,250.200 210.429 C 251.520 211.862,254.746 215.325,257.368 218.125 C 264.014 225.220,264.200 225.521,264.200 229.200 C 264.200 233.220,263.339 234.575,259.440 236.689 C 258.538 237.178,258.054 237.583,258.365 237.589 C 259.512 237.612,262.297 235.596,263.429 233.923 C 265.996 230.130,265.078 225.835,260.706 221.187 C 259.767 220.190,256.930 217.130,254.400 214.387 C 251.870 211.644,248.601 208.140,247.135 206.600 C 240.577 199.709,240.777 200.249,243.660 197.187 C 251.634 188.718,260.510 179.091,263.283 175.903 C 265.177 173.724,265.257 168.819,263.442 166.147 C 262.869 165.304,262.400 164.763,262.400 164.945 M193.867 167.867 C 193.720 168.013,193.618 168.688,193.641 169.367 L 193.682 170.600 194.010 169.203 C 194.353 167.747,194.317 167.416,193.867 167.867 M123.600 172.190 C 121.950 173.962,118.350 177.836,115.600 180.799 C 112.850 183.763,109.628 187.225,108.439 188.494 C 107.251 189.762,106.420 190.800,106.592 190.800 C 106.765 190.800,107.210 190.450,107.582 190.021 C 108.224 189.280,116.111 180.788,117.800 179.018 C 121.366 175.282,126.881 169.157,126.755 169.073 C 126.670 169.015,125.250 170.418,123.600 172.190 M193.600 172.310 C 193.600 172.993,193.777 173.662,193.994 173.796 C 194.240 173.948,194.294 173.545,194.137 172.720 C 193.800 170.951,193.600 170.799,193.600 172.310 M194.400 174.666 C 194.400 175.046,196.859 178.085,198.393 179.600 C 198.727 179.930,201.160 182.536,203.800 185.391 C 209.827 191.909,210.400 192.498,210.400 192.170 C 210.400 191.939,205.851 186.970,198.481 179.152 C 197.316 177.916,195.921 176.306,195.381 175.575 C 194.842 174.843,194.400 174.434,194.400 174.666 M102.927 194.500 C 100.123 197.406,99.297 200.154,100.519 202.510 C 101.142 203.709,103.457 206.400,103.866 206.400 C 104.026 206.400,103.602 205.815,102.923 205.100 C 99.475 201.466,99.574 198.580,103.285 194.554 C 105.357 192.306,105.083 192.264,102.927 194.500 M212.200 194.359 C 213.613 196.036,213.354 195.748,215.563 198.090 L 217.325 199.958 213.963 203.643 C 212.113 205.670,210.960 207.094,211.400 206.807 C 212.271 206.238,217.284 200.747,217.487 200.140 C 217.555 199.935,216.124 198.230,214.306 196.351 C 212.488 194.473,211.540 193.576,212.200 194.359 M106.234 209.300 C 109.459 212.645,113.930 217.370,116.063 219.687 C 117.018 220.724,119.780 223.723,122.200 226.349 C 124.620 228.976,126.667 231.060,126.749 230.980 C 126.831 230.901,125.931 229.799,124.749 228.531 C 123.567 227.264,121.520 225.053,120.200 223.619 C 118.880 222.184,116.610 219.748,115.156 218.205 C 113.702 216.662,111.362 214.158,109.956 212.639 C 105.574 207.905,104.473 206.800,104.143 206.800 C 103.967 206.800,104.908 207.925,106.234 209.300 M209.399 208.524 C 208.958 209.006,205.403 212.871,201.499 217.113 C 197.594 221.355,194.400 225.035,194.400 225.291 C 194.400 225.546,194.814 225.194,195.320 224.508 C 196.215 223.295,202.566 216.371,208.168 210.500 C 209.690 208.905,210.770 207.611,210.568 207.624 C 210.365 207.638,209.839 208.043,209.399 208.524 M225.899 215.861 C 218.579 223.560,217.273 225.006,217.467 225.199 C 217.578 225.310,218.031 224.950,218.473 224.400 C 218.915 223.850,221.531 221.012,224.286 218.094 L 229.295 212.787 230.050 213.658 C 230.465 214.137,230.893 214.440,231.001 214.332 C 231.109 214.225,230.762 213.728,230.231 213.229 L 229.265 212.321 225.899 215.861 M232.640 216.500 C 234.475 218.441,238.497 222.731,240.422 224.800 C 241.138 225.570,241.651 226.002,241.562 225.760 C 241.308 225.070,231.846 214.885,231.417 214.840 C 231.206 214.818,231.757 215.565,232.640 216.500 M211.568 231.170 C 208.616 234.233,206.484 236.584,206.831 236.393 C 207.374 236.094,210.844 232.620,213.400 229.816 C 213.840 229.334,214.912 228.187,215.781 227.269 C 216.651 226.351,217.267 225.600,217.150 225.600 C 217.033 225.600,214.521 228.106,211.568 231.170 M193.867 226.267 C 193.720 226.413,193.615 226.998,193.634 227.567 C 193.668 228.581,193.675 228.579,194.021 227.420 C 194.385 226.203,194.331 225.802,193.867 226.267 M243.800 228.384 C 246.784 231.730,251.953 236.981,252.077 236.790 C 252.145 236.685,249.950 234.347,247.200 231.594 C 244.450 228.841,242.920 227.396,243.800 228.384 M193.600 230.910 C 193.600 231.483,193.787 232.068,194.016 232.210 C 194.289 232.379,194.338 232.077,194.160 231.334 C 193.792 229.801,193.600 229.656,193.600 230.910 M127.200 231.446 C 127.200 231.601,128.145 232.738,129.300 233.973 C 135.673 240.789,137.230 242.400,137.445 242.400 C 137.575 242.400,135.728 240.291,133.341 237.713 C 127.685 231.606,127.200 231.110,127.200 231.446 M194.413 232.938 C 194.365 234.211,198.534 237.647,200.035 237.572 C 200.346 237.556,199.879 237.222,198.998 236.830 C 197.462 236.146,196.274 235.123,195.012 233.400 C 194.689 232.960,194.420 232.752,194.413 232.938 M204.200 237.200 C 203.429 237.531,203.431 237.545,204.276 237.572 C 204.758 237.587,205.264 237.420,205.400 237.200 C 205.692 236.727,205.301 236.727,204.200 237.200 M253.000 237.200 C 253.136 237.420,253.642 237.587,254.124 237.572 C 254.969 237.545,254.971 237.531,254.200 237.200 C 253.099 236.727,252.708 236.727,253.000 237.200 M139.641 245.100 C 140.831 246.365,144.143 249.906,147.002 252.970 C 153.336 259.756,156.083 262.450,156.373 262.160 C 156.494 262.039,156.305 261.779,155.953 261.582 C 155.392 261.268,150.800 256.472,140.923 245.884 C 139.341 244.188,137.918 242.800,137.762 242.800 C 137.606 242.800,138.452 243.835,139.641 245.100 M299.663 244.600 C 299.623 245.260,299.504 246.520,299.397 247.400 L 299.203 249.000 299.623 247.660 C 299.854 246.923,299.974 245.663,299.889 244.860 C 299.752 243.566,299.726 243.537,299.663 244.600 M298.600 250.400 C 298.450 250.873,298.417 251.350,298.527 251.460 C 298.637 251.570,298.850 251.273,299.000 250.800 C 299.150 250.327,299.183 249.850,299.073 249.740 C 298.963 249.630,298.750 249.927,298.600 250.400 M297.100 254.100 C 296.501 255.224,296.086 256.219,296.178 256.312 C 296.271 256.404,296.820 255.544,297.400 254.400 C 298.772 251.693,298.518 251.440,297.100 254.100 M294.284 258.309 C 293.670 259.129,292.550 260.250,291.795 260.800 C 291.040 261.350,290.417 261.943,290.411 262.119 C 290.405 262.294,291.103 261.873,291.963 261.182 C 293.632 259.840,296.249 256.794,295.719 256.809 C 295.543 256.815,294.898 257.490,294.284 258.309 M157.600 263.200 C 158.150 263.630,158.780 263.982,159.000 263.982 C 159.220 263.982,158.950 263.630,158.400 263.200 C 157.850 262.770,157.220 262.418,157.000 262.418 C 156.780 262.418,157.050 262.770,157.600 263.200 M288.600 263.132 C 287.940 263.533,286.516 264.198,285.436 264.610 C 284.356 265.021,283.659 265.420,283.887 265.496 C 284.388 265.663,288.283 263.940,289.400 263.057 C 290.483 262.202,290.067 262.240,288.600 263.132 M159.600 264.195 C 159.600 264.461,162.390 265.607,162.949 265.570 C 163.197 265.554,162.680 265.207,161.800 264.800 C 160.109 264.017,159.600 263.877,159.600 264.195 M164.200 266.000 C 164.640 266.189,165.450 266.338,166.000 266.332 L 167.000 266.320 166.000 266.000 C 165.450 265.824,164.640 265.674,164.200 265.668 L 163.400 265.656 164.200 266.000 M281.000 266.000 L 280.200 266.344 281.000 266.344 C 281.440 266.344,282.160 266.189,282.600 266.000 L 283.400 265.656 282.600 265.656 C 282.160 265.656,281.440 265.811,281.000 266.000 M195.931 266.700 C 211.183 266.758,236.023 266.758,251.131 266.700 C 266.239 266.642,253.760 266.594,223.400 266.594 C 193.040 266.594,180.679 266.642,195.931 266.700 " stroke="none" fill="#d495fc" fill-rule="evenodd"></path><path id="path4" d="M195.700 133.100 C 211.045 133.158,236.155 133.158,251.500 133.100 C 266.845 133.042,254.290 132.994,223.600 132.994 C 192.910 132.994,180.355 133.042,195.700 133.100 M280.500 133.476 C 280.885 133.576,281.515 133.576,281.900 133.476 C 282.285 133.375,281.970 133.293,281.200 133.293 C 280.430 133.293,280.115 133.375,280.500 133.476 M152.786 140.300 L 150.600 142.600 152.900 140.414 C 154.165 139.211,155.200 138.176,155.200 138.114 C 155.200 137.817,154.818 138.163,152.786 140.300 M293.400 140.000 C 294.483 141.100,295.460 142.000,295.570 142.000 C 295.680 142.000,294.883 141.100,293.800 140.000 C 292.717 138.900,291.740 138.000,291.630 138.000 C 291.520 138.000,292.317 138.900,293.400 140.000 M147.615 145.741 L 145.829 147.800 147.915 145.815 C 149.062 144.723,150.000 143.778,150.000 143.715 C 150.000 143.251,149.138 143.983,147.615 145.741 M141.781 152.100 L 140.200 153.800 141.900 152.219 C 143.481 150.748,143.784 150.400,143.481 150.400 C 143.416 150.400,142.651 151.165,141.781 152.100 M300.194 200.000 C 300.194 226.290,300.241 237.045,300.300 223.900 C 300.358 210.755,300.358 189.245,300.300 176.100 C 300.241 162.955,300.194 173.710,300.194 200.000 M137.781 156.500 L 136.200 158.200 137.900 156.619 C 139.481 155.148,139.784 154.800,139.481 154.800 C 139.416 154.800,138.651 155.565,137.781 156.500 M130.987 163.700 L 128.600 166.200 131.100 163.813 C 133.422 161.595,133.783 161.200,133.487 161.200 C 133.426 161.200,132.301 162.325,130.987 163.700 M205.600 163.711 C 205.600 163.787,206.185 164.278,206.900 164.801 C 207.704 165.390,207.984 165.487,207.633 165.055 C 207.100 164.399,205.600 163.407,205.600 163.711 M248.010 167.790 C 246.820 168.995,245.926 170.036,246.023 170.105 C 246.121 170.173,247.174 169.188,248.363 167.915 C 251.106 164.981,250.867 164.897,248.010 167.790 M210.200 168.000 C 211.283 169.100,212.260 170.000,212.370 170.000 C 212.480 170.000,211.683 169.100,210.600 168.000 C 209.517 166.900,208.540 166.000,208.430 166.000 C 208.320 166.000,209.117 166.900,210.200 168.000 M126.575 168.500 L 125.400 169.800 126.700 168.625 C 127.912 167.530,128.184 167.200,127.875 167.200 C 127.806 167.200,127.221 167.785,126.575 168.500 M264.093 170.800 C 264.093 171.570,264.175 171.885,264.276 171.500 C 264.376 171.115,264.376 170.485,264.276 170.100 C 264.175 169.715,264.093 170.030,264.093 170.800 M215.583 173.700 C 217.241 175.466,217.600 175.784,217.600 175.483 C 217.600 175.419,216.745 174.564,215.700 173.583 L 213.800 171.800 215.583 173.700 M120.786 174.700 L 118.600 177.000 120.900 174.814 C 123.037 172.782,123.383 172.400,123.086 172.400 C 123.024 172.400,121.989 173.435,120.786 174.700 M195.600 175.725 C 195.600 175.794,196.185 176.379,196.900 177.025 L 198.200 178.200 197.025 176.900 C 195.930 175.688,195.600 175.416,195.600 175.725 M220.800 179.400 C 221.995 180.610,223.063 181.600,223.173 181.600 C 223.283 181.600,222.395 180.610,221.200 179.400 C 220.005 178.190,218.937 177.200,218.827 177.200 C 218.717 177.200,219.605 178.190,220.800 179.400 M237.600 179.000 C 236.628 179.990,235.923 180.800,236.033 180.800 C 236.143 180.800,237.028 179.990,238.000 179.000 C 238.972 178.010,239.677 177.200,239.567 177.200 C 239.457 177.200,238.572 178.010,237.600 179.000 M115.186 180.700 L 113.000 183.000 115.300 180.814 C 117.437 178.782,117.783 178.400,117.486 178.400 C 117.424 178.400,116.389 179.435,115.186 180.700 M200.000 180.600 C 201.195 181.810,202.263 182.800,202.373 182.800 C 202.483 182.800,201.595 181.810,200.400 180.600 C 199.205 179.390,198.137 178.400,198.027 178.400 C 197.917 178.400,198.805 179.390,200.000 180.600 M257.381 181.300 L 255.800 183.000 257.500 181.419 C 259.081 179.948,259.384 179.600,259.081 179.600 C 259.016 179.600,258.251 180.365,257.381 181.300 M232.786 184.300 L 230.600 186.600 232.900 184.414 C 234.165 183.211,235.200 182.176,235.200 182.114 C 235.200 181.817,234.818 182.163,232.786 184.300 M226.401 185.400 C 226.951 186.060,227.445 186.675,227.500 186.767 C 227.555 186.858,227.688 186.845,227.796 186.738 C 227.904 186.630,227.409 186.015,226.697 185.371 L 225.403 184.200 226.401 185.400 M109.385 186.900 L 107.400 189.000 109.500 187.015 C 110.655 185.923,111.600 184.978,111.600 184.915 C 111.600 184.617,111.229 184.949,109.385 186.900 M206.017 187.015 C 207.217 188.343,208.282 189.371,208.381 189.300 C 208.481 189.229,207.498 188.143,206.198 186.886 L 203.833 184.600 206.017 187.015 M251.986 187.100 L 249.800 189.400 252.100 187.214 C 253.365 186.011,254.400 184.976,254.400 184.914 C 254.400 184.617,254.018 184.963,251.986 187.100 M105.375 191.300 L 104.200 192.600 105.500 191.425 C 106.215 190.779,106.800 190.194,106.800 190.125 C 106.800 189.816,106.470 190.088,105.375 191.300 M247.381 192.100 L 245.800 193.800 247.500 192.219 C 249.081 190.748,249.384 190.400,249.081 190.400 C 249.016 190.400,248.251 191.165,247.381 192.100 M216.100 197.817 C 216.925 198.706,217.600 199.689,217.600 200.000 C 217.600 200.311,216.925 201.294,216.100 202.183 L 214.600 203.800 216.300 202.219 C 217.235 201.349,218.000 200.351,218.000 200.000 C 218.000 199.649,217.235 198.651,216.300 197.781 L 214.600 196.200 216.100 197.817 M242.175 197.700 L 241.000 199.000 242.300 197.825 C 243.015 197.179,243.600 196.594,243.600 196.525 C 243.600 196.216,243.270 196.488,242.175 197.700 M99.709 200.000 C 99.709 200.990,99.787 201.395,99.882 200.900 C 99.978 200.405,99.978 199.595,99.882 199.100 C 99.787 198.605,99.709 199.010,99.709 200.000 M240.446 199.825 C 240.420 200.290,240.967 201.163,241.700 201.825 L 243.000 203.000 241.939 201.800 C 241.355 201.140,240.791 200.240,240.685 199.800 C 240.498 199.021,240.492 199.021,240.446 199.825 M103.800 207.200 C 104.883 208.300,105.860 209.200,105.970 209.200 C 106.080 209.200,105.283 208.300,104.200 207.200 C 103.117 206.100,102.140 205.200,102.030 205.200 C 101.920 205.200,102.717 206.100,103.800 207.200 M246.820 207.421 C 247.799 208.533,248.681 209.381,248.781 209.307 C 248.880 209.233,248.079 208.323,247.001 207.286 L 245.040 205.400 246.820 207.421 M106.400 209.847 C 106.400 210.056,107.435 211.211,108.700 212.414 L 111.000 214.600 108.800 212.209 C 107.590 210.894,106.555 209.739,106.500 209.643 C 106.445 209.546,106.400 209.638,106.400 209.847 M206.400 212.600 C 205.428 213.590,204.723 214.400,204.833 214.400 C 204.943 214.400,205.828 213.590,206.800 212.600 C 207.772 211.610,208.477 210.800,208.367 210.800 C 208.257 210.800,207.372 211.610,206.400 212.600 M252.000 213.000 C 253.195 214.210,254.263 215.200,254.373 215.200 C 254.483 215.200,253.595 214.210,252.400 213.000 C 251.205 211.790,250.137 210.800,250.027 210.800 C 249.917 210.800,250.805 211.790,252.000 213.000 M226.818 214.134 L 225.437 215.800 227.118 214.219 C 228.043 213.349,228.800 212.584,228.800 212.519 C 228.800 212.059,227.994 212.716,226.818 214.134 M232.200 215.200 C 233.506 216.520,234.665 217.600,234.775 217.600 C 234.885 217.600,233.906 216.520,232.600 215.200 C 231.294 213.880,230.135 212.800,230.025 212.800 C 229.915 212.800,230.894 213.880,232.200 215.200 M201.200 218.200 C 200.228 219.190,199.523 220.000,199.633 220.000 C 199.743 220.000,200.628 219.190,201.600 218.200 C 202.572 217.210,203.277 216.400,203.167 216.400 C 203.057 216.400,202.172 217.210,201.200 218.200 M114.783 218.900 C 116.441 220.666,116.800 220.984,116.800 220.683 C 116.800 220.619,115.945 219.764,114.900 218.783 L 113.000 217.000 114.783 218.900 M257.201 218.596 C 257.970 219.473,258.645 220.268,258.700 220.362 C 258.755 220.456,258.887 220.447,258.993 220.341 C 259.099 220.235,258.424 219.440,257.493 218.574 L 255.801 217.000 257.201 218.596 M220.786 220.700 L 218.600 223.000 220.900 220.814 C 223.037 218.782,223.383 218.400,223.086 218.400 C 223.024 218.400,221.989 219.435,220.786 220.700 M237.583 220.900 C 239.241 222.666,239.600 222.984,239.600 222.683 C 239.600 222.619,238.745 221.764,237.700 220.783 L 235.800 219.000 237.583 220.900 M196.825 222.969 L 195.450 224.600 197.005 223.113 C 197.860 222.296,198.479 221.562,198.380 221.483 C 198.281 221.403,197.581 222.072,196.825 222.969 M119.415 224.012 C 120.727 225.449,121.882 226.567,121.981 226.498 C 122.081 226.428,121.008 225.252,119.597 223.885 L 117.031 221.400 119.415 224.012 M216.622 225.175 L 215.044 227.000 216.803 225.314 C 217.770 224.386,218.480 223.565,218.380 223.488 C 218.281 223.412,217.490 224.171,216.622 225.175 M264.093 229.200 C 264.093 229.970,264.175 230.285,264.276 229.900 C 264.376 229.515,264.376 228.885,264.276 228.500 C 264.175 228.115,264.093 228.430,264.093 229.200 M124.800 229.725 C 124.800 229.794,125.385 230.379,126.100 231.025 L 127.400 232.200 126.225 230.900 C 125.130 229.688,124.800 229.416,124.800 229.725 M210.975 231.300 L 209.800 232.600 211.100 231.425 C 211.815 230.779,212.400 230.194,212.400 230.125 C 212.400 229.816,212.070 230.088,210.975 231.300 M247.583 231.700 C 248.564 232.745,249.419 233.600,249.483 233.600 C 249.784 233.600,249.466 233.241,247.700 231.583 L 245.800 229.800 247.583 231.700 M128.800 234.125 C 128.800 234.194,129.385 234.779,130.100 235.425 L 131.400 236.600 130.225 235.300 C 129.130 234.088,128.800 233.816,128.800 234.125 M136.600 242.400 C 137.683 243.500,138.660 244.400,138.770 244.400 C 138.880 244.400,138.083 243.500,137.000 242.400 C 135.917 241.300,134.940 240.400,134.830 240.400 C 134.720 240.400,135.517 241.300,136.600 242.400 M141.200 247.400 C 142.395 248.610,143.463 249.600,143.573 249.600 C 143.683 249.600,142.795 248.610,141.600 247.400 C 140.405 246.190,139.337 245.200,139.227 245.200 C 139.117 245.200,140.005 246.190,141.200 247.400 M147.400 254.000 C 148.259 254.880,149.052 255.600,149.162 255.600 C 149.272 255.600,148.659 254.880,147.800 254.000 C 146.941 253.120,146.148 252.400,146.038 252.400 C 145.928 252.400,146.541 253.120,147.400 254.000 M152.400 259.400 C 153.817 260.830,155.067 262.000,155.177 262.000 C 155.287 262.000,154.217 260.830,152.800 259.400 C 151.383 257.970,150.133 256.800,150.023 256.800 C 149.913 256.800,150.983 257.970,152.400 259.400 M281.800 266.400 C 280.693 266.682,280.677 266.709,281.600 266.747 C 282.150 266.769,282.870 266.613,283.200 266.400 C 283.881 265.960,283.529 265.960,281.800 266.400 M195.531 267.100 C 211.003 267.158,236.203 267.158,251.531 267.100 C 266.859 267.042,254.200 266.994,223.400 266.994 C 192.600 266.995,180.059 267.042,195.531 267.100 " stroke="none" fill="#e4c4fc" fill-rule="evenodd"></path></g></svg>