<svg id="svg" version="1.1" xmlns="http://www.w3.org/2000/svg" xmlns:xlink="http://www.w3.org/1999/xlink" width="400" height="400" viewBox="0, 0, 400,400"><g id="svgg"><path id="path0" d="M275.200 100.584 C 269.553 101.872,267.846 103.036,259.596 111.229 L 253.090 117.689 267.749 132.344 L 282.407 147.000 288.730 140.655 C 294.695 134.669,296.670 132.259,297.943 129.414 C 300.364 124.004,300.563 119.287,298.600 113.800 C 295.194 104.275,284.787 98.397,275.200 100.584 M211.252 159.602 C 193.168 177.680,178.118 192.860,177.807 193.335 C 177.496 193.811,176.607 197.440,175.832 201.400 C 175.056 205.360,174.237 209.455,174.011 210.500 C 173.539 212.683,173.036 215.174,172.376 218.600 C 172.122 219.920,171.753 221.522,171.557 222.160 C 170.084 226.946,172.917 229.723,177.954 228.428 C 178.749 228.224,180.390 227.863,181.600 227.627 C 182.810 227.391,185.240 226.906,187.000 226.549 C 188.760 226.193,190.650 225.824,191.200 225.729 C 191.750 225.634,192.920 225.396,193.800 225.199 C 194.680 225.002,197.920 224.355,201.000 223.761 L 206.600 222.681 240.000 189.343 L 273.400 156.005 258.766 141.369 L 244.131 126.733 211.252 159.602 " stroke="none" fill="#fc7860" fill-rule="evenodd"></path><path id="path1" d="M61.500 0.292 C 60.235 0.373,59.200 0.611,59.200 0.820 C 59.200 1.029,58.581 1.200,57.824 1.200 C 57.067 1.200,56.336 1.380,56.200 1.600 C 56.064 1.820,55.423 2.000,54.776 2.000 C 54.129 2.000,53.600 2.180,53.600 2.400 C 53.600 2.620,52.869 2.800,51.976 2.800 C 50.996 2.800,50.451 2.958,50.600 3.200 C 50.738 3.424,50.427 3.600,49.891 3.600 C 49.366 3.600,48.064 4.041,46.998 4.581 C 45.933 5.120,44.885 5.452,44.669 5.319 C 44.450 5.184,44.403 5.281,44.562 5.538 C 44.749 5.841,44.495 6.000,43.824 6.000 C 43.261 6.000,42.800 6.180,42.800 6.400 C 42.800 6.620,42.522 6.800,42.183 6.800 C 41.844 6.800,41.180 7.160,40.708 7.600 C 40.236 8.040,39.433 8.400,38.925 8.400 C 38.416 8.400,38.000 8.559,38.000 8.753 C 38.000 8.948,37.685 9.206,37.300 9.328 C 36.319 9.637,33.428 11.338,33.267 11.700 C 33.193 11.865,32.878 12.000,32.567 12.000 C 32.255 12.000,32.000 12.180,32.000 12.400 C 32.000 12.620,31.700 12.800,31.333 12.800 C 30.967 12.800,30.787 12.921,30.935 13.068 C 31.082 13.215,30.482 13.765,29.601 14.291 C 28.721 14.816,28.000 15.393,28.000 15.574 C 28.000 15.755,27.462 16.126,26.805 16.398 C 26.148 16.670,25.703 17.043,25.816 17.226 C 25.930 17.410,25.628 17.771,25.145 18.029 C 24.045 18.618,18.000 24.699,18.000 25.217 C 18.000 25.428,17.730 25.600,17.400 25.600 C 17.070 25.600,16.800 25.756,16.800 25.948 C 16.800 26.139,16.080 27.200,15.200 28.305 C 14.320 29.410,13.600 30.524,13.600 30.781 C 13.600 31.037,13.420 31.136,13.200 31.000 C 12.980 30.864,12.800 31.057,12.800 31.429 C 12.800 31.802,12.412 32.442,11.939 32.853 C 11.465 33.264,11.240 33.603,11.439 33.606 C 11.637 33.609,11.612 33.744,11.382 33.906 C 10.768 34.338,9.200 37.153,9.200 37.823 C 9.200 38.140,9.020 38.400,8.800 38.400 C 8.580 38.400,8.400 38.670,8.400 39.000 C 8.400 39.330,8.220 39.600,8.000 39.600 C 7.780 39.600,7.600 39.960,7.600 40.400 C 7.600 40.840,7.420 41.200,7.200 41.200 C 6.980 41.200,6.800 41.472,6.800 41.805 C 6.800 42.361,6.078 43.922,5.600 44.400 C 5.490 44.510,5.339 44.960,5.263 45.400 C 5.188 45.840,4.963 46.260,4.763 46.333 C 4.564 46.407,4.400 46.801,4.400 47.210 C 4.400 47.618,4.220 48.064,4.000 48.200 C 3.780 48.336,3.600 48.987,3.600 49.647 C 3.600 50.345,3.433 50.744,3.200 50.600 C 2.958 50.451,2.800 50.996,2.800 51.976 C 2.800 52.869,2.620 53.600,2.400 53.600 C 2.180 53.600,2.000 54.140,2.000 54.800 C 2.000 55.460,1.857 56.000,1.682 56.000 C 1.507 56.000,1.318 56.670,1.263 57.488 C 1.208 58.306,0.946 59.110,0.682 59.273 C -0.021 59.707,-0.021 340.293,0.682 340.727 C 0.946 340.890,1.208 341.694,1.263 342.512 C 1.318 343.330,1.507 344.000,1.682 344.000 C 1.857 344.000,2.000 344.540,2.000 345.200 C 2.000 345.860,2.143 346.400,2.318 346.400 C 2.493 346.400,2.681 347.075,2.736 347.900 C 2.790 348.725,3.007 349.460,3.218 349.533 C 3.428 349.607,3.600 350.091,3.600 350.610 C 3.600 351.128,3.780 351.664,4.000 351.800 C 4.220 351.936,4.400 352.397,4.400 352.824 C 4.400 353.251,4.580 353.600,4.800 353.600 C 5.020 353.600,5.200 354.050,5.200 354.600 C 5.200 355.150,5.380 355.600,5.600 355.600 C 5.820 355.600,6.004 355.915,6.009 356.300 C 6.014 356.685,6.370 357.450,6.800 358.000 C 7.230 358.550,7.586 359.315,7.591 359.700 C 7.596 360.085,7.780 360.400,8.000 360.400 C 8.220 360.400,8.400 360.760,8.400 361.200 C 8.400 361.640,8.535 362.001,8.700 362.003 C 8.865 362.005,9.201 362.410,9.448 362.903 C 10.921 365.855,11.391 366.634,11.876 366.925 C 12.173 367.103,12.312 367.418,12.185 367.625 C 12.057 367.831,12.143 368.000,12.376 368.000 C 12.609 368.000,12.800 368.188,12.800 368.417 C 12.800 368.869,13.396 369.675,14.500 370.717 C 14.885 371.080,15.200 371.526,15.200 371.708 C 15.200 371.890,15.647 372.453,16.193 372.959 C 16.740 373.465,17.086 373.980,16.963 374.103 C 16.840 374.226,17.113 374.446,17.570 374.590 C 18.026 374.735,18.400 375.009,18.400 375.200 C 18.400 375.808,24.679 381.908,25.610 382.203 C 26.308 382.425,26.384 382.565,25.953 382.838 C 25.510 383.118,25.535 383.189,26.077 383.194 C 26.450 383.197,26.991 383.515,27.279 383.900 C 27.939 384.781,30.224 386.400,30.807 386.400 C 31.049 386.400,31.136 386.580,31.000 386.800 C 30.864 387.020,30.988 387.200,31.276 387.201 C 31.564 387.201,32.419 387.731,33.176 388.378 C 33.932 389.024,34.699 389.463,34.879 389.351 C 35.058 389.240,35.313 389.430,35.445 389.772 C 35.576 390.115,35.830 390.305,36.010 390.194 C 36.189 390.083,36.614 390.271,36.953 390.611 C 37.293 390.950,37.664 391.238,37.777 391.249 C 38.646 391.337,39.600 391.755,39.600 392.047 C 39.600 392.241,39.865 392.400,40.188 392.400 C 40.511 392.400,41.417 392.760,42.200 393.200 C 42.983 393.640,43.899 394.000,44.236 394.000 C 44.572 394.000,44.759 394.143,44.651 394.317 C 44.544 394.491,44.845 394.663,45.322 394.699 C 45.798 394.735,46.251 394.952,46.327 395.182 C 46.404 395.412,46.801 395.600,47.210 395.600 C 47.618 395.600,48.064 395.780,48.200 396.000 C 48.336 396.220,49.112 396.403,49.924 396.406 C 51.024 396.411,51.247 396.511,50.800 396.800 C 50.343 397.095,50.505 397.189,51.476 397.194 C 52.178 397.197,52.864 397.380,53.000 397.600 C 53.136 397.820,53.867 398.000,54.624 398.000 C 55.381 398.000,56.000 398.180,56.000 398.400 C 56.000 398.620,56.135 398.779,56.300 398.753 C 57.566 398.553,60.116 398.866,59.646 399.163 C 58.384 399.963,74.037 400.041,204.000 399.884 C 341.652 399.719,340.800 399.723,340.800 399.133 C 340.800 398.950,341.419 398.800,342.176 398.800 C 342.933 398.800,343.664 398.620,343.800 398.400 C 343.936 398.180,344.476 398.000,345.000 398.000 C 345.524 398.000,346.064 397.820,346.200 397.600 C 346.336 397.380,347.157 397.200,348.024 397.200 C 348.891 397.200,349.600 397.020,349.600 396.800 C 349.600 396.580,350.061 396.400,350.624 396.400 C 351.204 396.400,351.540 396.227,351.400 396.000 C 351.264 395.780,351.526 395.600,351.982 395.600 C 352.438 395.600,353.123 395.441,353.505 395.247 C 353.887 395.052,354.740 394.668,355.400 394.393 C 357.524 393.508,358.595 393.006,358.800 392.801 C 359.276 392.323,360.839 391.600,361.395 391.600 C 361.728 391.600,362.000 391.420,362.000 391.200 C 362.000 390.980,362.135 390.819,362.300 390.843 C 362.881 390.927,364.400 390.303,364.400 389.980 C 364.400 389.801,364.738 389.547,365.151 389.416 C 365.564 389.284,366.419 388.733,367.051 388.189 C 367.683 387.646,368.425 387.201,368.700 387.200 C 368.975 387.200,369.200 387.020,369.200 386.800 C 369.200 386.580,369.456 386.400,369.768 386.400 C 370.081 386.400,371.161 385.576,372.168 384.568 C 373.176 383.561,374.000 382.837,374.000 382.960 C 374.000 383.082,375.890 381.288,378.200 378.972 C 380.510 376.656,382.400 374.580,382.400 374.357 C 382.400 374.135,382.580 374.064,382.800 374.200 C 383.020 374.336,383.200 374.239,383.200 373.984 C 383.200 373.729,383.759 372.999,384.442 372.360 C 385.126 371.722,385.541 371.200,385.366 371.200 C 385.191 371.200,385.396 370.917,385.824 370.570 C 386.251 370.224,386.330 370.058,386.000 370.201 C 385.670 370.344,385.805 370.103,386.300 369.666 C 386.795 369.229,387.200 368.676,387.200 368.436 C 387.200 368.196,387.380 368.000,387.600 368.000 C 387.820 368.000,388.000 367.730,388.000 367.400 C 388.000 367.070,388.180 366.800,388.400 366.800 C 388.620 366.800,388.800 366.564,388.800 366.275 C 388.800 365.987,389.115 365.397,389.500 364.963 C 390.502 363.836,391.600 361.784,391.600 361.038 C 391.600 360.687,391.780 360.400,392.000 360.400 C 392.220 360.400,392.400 360.040,392.400 359.600 C 392.400 359.160,392.536 358.800,392.702 358.800 C 392.972 358.800,393.385 357.961,394.377 355.400 C 394.547 354.960,395.072 353.818,395.543 352.862 C 396.014 351.906,396.400 350.781,396.400 350.362 C 396.400 349.943,396.543 349.600,396.718 349.600 C 396.893 349.600,397.081 348.925,397.136 348.100 C 397.190 347.275,397.407 346.540,397.618 346.467 C 397.828 346.393,398.000 345.819,398.000 345.190 C 398.000 344.562,398.180 343.936,398.400 343.800 C 398.620 343.664,398.800 342.933,398.800 342.176 C 398.800 341.419,398.950 340.800,399.133 340.800 C 399.726 340.800,399.723 341.475,399.809 202.000 C 399.893 65.431,399.862 58.543,399.168 59.639 C 398.934 60.008,398.810 59.480,398.806 58.100 C 398.803 56.945,398.620 56.000,398.400 56.000 C 398.180 56.000,398.000 55.538,398.000 54.974 C 398.000 54.409,397.819 53.609,397.597 53.195 C 397.376 52.781,397.158 51.996,397.112 51.450 C 397.067 50.904,396.888 50.545,396.715 50.652 C 396.542 50.760,396.400 50.307,396.400 49.647 C 396.400 48.987,396.220 48.336,396.000 48.200 C 395.780 48.064,395.600 47.603,395.600 47.176 C 395.600 46.749,395.420 46.400,395.200 46.400 C 394.980 46.400,394.794 46.175,394.787 45.900 C 394.781 45.625,394.241 44.325,393.587 43.010 C 392.934 41.696,392.400 40.391,392.400 40.110 C 392.400 39.830,392.220 39.600,392.000 39.600 C 391.780 39.600,391.600 39.313,391.600 38.962 C 391.600 38.611,391.245 37.825,390.812 37.217 C 390.378 36.608,390.138 35.995,390.278 35.855 C 390.419 35.715,390.323 35.600,390.067 35.600 C 389.810 35.600,389.600 35.330,389.600 35.000 C 389.600 34.670,389.420 34.400,389.200 34.400 C 388.980 34.400,388.800 34.130,388.800 33.800 C 388.800 33.470,388.650 33.200,388.468 33.200 C 388.285 33.200,387.880 32.705,387.568 32.100 C 387.255 31.495,386.685 30.765,386.300 30.477 C 385.915 30.190,385.600 29.710,385.600 29.411 C 385.600 29.112,385.060 28.358,384.400 27.735 C 383.740 27.112,383.200 26.462,383.200 26.291 C 383.200 26.119,381.130 23.922,378.600 21.408 C 376.070 18.895,374.000 16.922,374.000 17.024 C 374.000 17.126,373.281 16.533,372.402 15.705 C 371.523 14.877,370.640 14.200,370.440 14.200 C 370.240 14.200,369.474 13.664,368.738 13.008 C 368.002 12.352,367.361 11.902,367.313 12.008 C 367.265 12.114,366.893 11.930,366.486 11.600 C 365.408 10.725,363.506 9.584,362.700 9.329 C 362.315 9.207,362.000 8.948,362.000 8.753 C 362.000 8.559,361.640 8.400,361.200 8.400 C 360.760 8.400,360.400 8.220,360.400 8.000 C 360.400 7.780,360.186 7.600,359.924 7.600 C 359.499 7.600,357.374 6.649,352.662 4.350 C 351.816 3.938,350.796 3.600,350.396 3.600 C 349.995 3.600,349.607 3.428,349.533 3.218 C 349.460 3.007,348.725 2.790,347.900 2.736 C 347.075 2.681,346.400 2.493,346.400 2.318 C 346.400 2.143,345.860 2.000,345.200 2.000 C 344.540 2.000,344.000 1.820,344.000 1.600 C 344.000 1.380,343.295 1.200,342.433 1.200 C 341.536 1.200,340.796 0.987,340.700 0.700 C 340.544 0.233,68.615 -0.165,61.500 0.292 M284.397 100.194 C 295.456 103.137,303.155 115.902,299.945 125.972 C 298.963 129.049,297.856 131.600,297.502 131.600 C 297.336 131.600,297.200 131.877,297.200 132.216 C 297.200 133.041,283.255 147.200,282.442 147.200 C 281.606 147.200,252.800 118.398,252.800 117.562 C 252.800 116.213,266.463 103.388,269.445 101.938 C 274.238 99.608,279.769 98.963,284.397 100.194 M259.206 140.983 C 267.123 148.894,273.600 155.644,273.600 155.984 C 273.600 156.650,207.991 222.286,206.505 223.106 C 206.013 223.378,205.104 223.600,204.485 223.600 C 203.866 223.600,203.189 223.762,202.980 223.959 C 202.622 224.297,201.466 224.516,197.200 225.051 C 196.210 225.176,195.229 225.440,195.020 225.639 C 194.811 225.837,193.902 226.000,193.000 226.000 C 192.098 226.000,191.189 226.162,190.980 226.359 C 190.624 226.695,189.732 226.868,185.500 227.423 C 184.565 227.545,183.440 227.804,183.000 227.998 C 179.846 229.387,173.323 229.467,171.929 228.133 C 170.535 226.798,170.577 220.250,172.000 217.000 C 172.336 216.233,172.588 214.874,173.038 211.400 C 173.152 210.520,173.404 209.440,173.598 209.000 C 173.792 208.560,174.044 207.570,174.159 206.800 C 174.273 206.030,174.563 204.410,174.804 203.200 C 175.044 201.990,175.340 200.280,175.461 199.400 C 175.583 198.520,175.844 197.629,176.041 197.420 C 176.238 197.211,176.400 196.444,176.400 195.715 C 176.400 194.986,176.622 193.987,176.894 193.495 C 177.914 191.648,243.386 126.378,244.106 126.490 C 244.494 126.550,251.289 133.072,259.206 140.983 M195.461 133.888 C 200.899 136.796,202.006 143.317,197.799 147.652 C 195.190 150.340,197.463 150.182,158.334 150.400 L 122.468 150.600 120.734 151.805 C 119.721 152.510,118.626 153.750,118.100 154.790 L 117.200 156.570 117.200 216.698 C 117.200 280.734,117.123 278.076,119.049 280.245 C 119.462 280.710,120.430 281.475,121.200 281.944 L 122.600 282.797 183.074 282.799 C 246.970 282.800,244.833 282.864,246.936 280.875 C 249.557 278.395,249.380 280.999,249.600 241.600 C 249.781 209.259,249.864 205.683,250.463 204.592 C 253.857 198.404,261.805 198.105,265.795 204.016 L 267.000 205.800 267.000 242.600 C 267.000 275.491,266.931 279.612,266.350 281.400 C 265.411 284.287,263.521 288.400,263.132 288.400 C 262.950 288.400,262.800 288.630,262.800 288.912 C 262.800 291.864,252.229 298.926,246.227 299.982 C 242.895 300.569,123.240 300.561,120.320 299.974 C 117.731 299.454,114.171 298.119,112.738 297.132 C 112.154 296.729,111.571 296.400,111.443 296.400 C 109.277 296.400,102.701 288.006,100.920 282.967 L 99.800 279.800 99.684 219.600 C 99.614 183.353,99.719 157.871,99.950 155.558 C 101.096 144.034,110.192 134.731,121.800 133.213 C 123.120 133.040,139.860 132.922,159.000 132.949 L 193.800 133.000 195.461 133.888 " stroke="none" fill="#fce3e3" fill-rule="evenodd"></path><path id="path2" d="M294.000 106.200 C 294.746 106.970,295.447 107.600,295.557 107.600 C 295.667 107.600,295.146 106.970,294.400 106.200 C 293.654 105.430,292.953 104.800,292.843 104.800 C 292.733 104.800,293.254 105.430,294.000 106.200 M263.578 106.700 L 262.200 108.200 263.700 106.822 C 265.096 105.538,265.384 105.200,265.078 105.200 C 265.012 105.200,264.337 105.875,263.578 106.700 M255.387 114.900 L 253.000 117.400 255.500 115.013 C 256.875 113.699,258.000 112.574,258.000 112.513 C 258.000 112.217,257.605 112.578,255.387 114.900 M234.992 135.300 L 231.000 139.400 235.100 135.408 C 237.355 133.212,239.200 131.367,239.200 131.308 C 239.200 131.018,238.701 131.492,234.992 135.300 M141.530 133.500 C 150.841 133.560,165.961 133.560,175.130 133.500 C 184.298 133.440,176.680 133.391,158.200 133.391 C 139.720 133.391,132.218 133.440,141.530 133.500 M119.400 134.000 C 118.381 134.438,119.432 134.438,120.800 134.000 C 121.604 133.743,121.643 133.677,121.000 133.668 C 120.560 133.662,119.840 133.811,119.400 134.000 M294.175 135.300 L 293.000 136.600 294.300 135.425 C 295.015 134.779,295.600 134.194,295.600 134.125 C 295.600 133.816,295.270 134.088,294.175 135.300 M199.444 139.800 C 199.773 141.271,200.002 141.590,199.994 140.567 C 199.991 140.145,199.805 139.530,199.582 139.200 C 199.285 138.762,199.248 138.924,199.444 139.800 M105.544 142.700 C 104.275 144.232,103.819 144.942,104.281 144.665 C 104.793 144.358,106.569 142.000,106.289 142.000 C 106.198 142.000,105.863 142.315,105.544 142.700 M199.429 143.429 C 199.281 144.015,199.238 144.572,199.332 144.666 C 199.427 144.760,199.624 144.358,199.771 143.771 C 199.919 143.185,199.962 142.628,199.868 142.534 C 199.773 142.440,199.576 142.842,199.429 143.429 M283.185 146.218 C 282.903 146.558,282.386 146.728,282.036 146.595 C 281.523 146.400,281.498 146.451,281.904 146.861 C 282.312 147.271,282.579 147.199,283.293 146.484 C 283.780 145.998,284.070 145.600,283.938 145.600 C 283.806 145.600,283.467 145.878,283.185 146.218 M218.200 152.000 C 214.906 155.300,212.300 158.000,212.410 158.000 C 212.520 158.000,215.306 155.300,218.600 152.000 C 221.894 148.700,224.500 146.000,224.390 146.000 C 224.280 146.000,221.494 148.700,218.200 152.000 M193.000 149.600 C 192.496 149.817,192.422 149.944,192.800 149.944 C 193.130 149.944,193.760 149.789,194.200 149.600 C 194.704 149.383,194.778 149.256,194.400 149.256 C 194.070 149.256,193.440 149.411,193.000 149.600 M119.762 151.662 L 119.000 152.524 120.100 151.816 C 121.234 151.086,121.449 150.800,120.862 150.800 C 120.676 150.800,120.181 151.188,119.762 151.662 M100.253 154.436 C 100.114 155.131,100.023 156.353,100.051 157.150 C 100.085 158.130,100.210 157.763,100.435 156.018 C 100.789 153.283,100.677 152.313,100.253 154.436 M116.643 156.233 C 116.307 157.108,116.391 276.436,116.728 277.285 C 116.878 277.662,117.000 250.437,117.000 216.785 C 117.000 183.133,116.974 155.600,116.943 155.600 C 116.911 155.600,116.776 155.885,116.643 156.233 M201.800 168.400 C 198.506 171.700,195.900 174.400,196.010 174.400 C 196.120 174.400,198.906 171.700,202.200 168.400 C 205.494 165.100,208.100 162.400,207.990 162.400 C 207.880 162.400,205.094 165.100,201.800 168.400 M184.992 185.300 L 181.000 189.400 185.100 185.408 C 188.908 181.699,189.382 181.200,189.092 181.200 C 189.033 181.200,187.188 183.045,184.992 185.300 M256.138 200.306 C 255.884 200.468,256.902 200.600,258.400 200.600 C 259.898 200.600,260.916 200.468,260.662 200.306 C 260.408 200.144,259.390 200.012,258.400 200.012 C 257.410 200.012,256.392 200.144,256.138 200.306 M250.249 206.215 C 250.112 206.573,250.018 207.256,250.041 207.733 C 250.067 208.281,250.203 208.086,250.410 207.203 C 250.760 205.716,250.665 205.133,250.249 206.215 M266.591 242.000 C 266.591 261.030,266.640 268.815,266.700 259.300 C 266.760 249.785,266.760 234.215,266.700 224.700 C 266.640 215.185,266.591 222.970,266.591 242.000 M170.901 224.600 C 170.905 225.480,170.987 225.793,171.083 225.295 C 171.179 224.798,171.175 224.078,171.075 223.695 C 170.975 223.313,170.896 223.720,170.901 224.600 M100.040 276.633 C 100.062 277.495,100.227 278.650,100.407 279.200 C 100.611 279.821,100.651 279.291,100.512 277.800 C 100.254 275.021,99.982 274.349,100.040 276.633 M117.640 279.200 C 118.243 280.503,119.193 281.574,120.196 282.081 C 120.706 282.339,120.561 282.069,119.800 281.344 C 119.140 280.715,118.280 279.750,117.888 279.200 L 117.177 278.200 117.640 279.200 M266.046 279.267 C 266.021 279.634,265.896 280.264,265.770 280.667 C 265.552 281.362,265.563 281.363,265.997 280.687 C 266.248 280.296,266.373 279.666,266.273 279.287 C 266.111 278.668,266.088 278.666,266.046 279.267 M183.400 283.200 L 123.000 283.404 183.200 283.474 C 216.310 283.512,243.760 283.389,244.200 283.200 C 244.640 283.011,244.730 282.888,244.400 282.926 C 244.070 282.965,216.620 283.088,183.400 283.200 M105.539 290.673 C 106.525 292.104,109.781 295.077,111.000 295.661 C 111.440 295.872,111.260 295.645,110.600 295.156 C 109.940 294.668,108.334 293.173,107.030 291.834 C 105.727 290.495,105.056 289.973,105.539 290.673 M258.860 292.642 C 258.562 292.978,258.399 293.332,258.495 293.429 C 258.592 293.526,258.998 293.244,259.398 292.802 C 259.797 292.361,259.961 292.007,259.762 292.015 C 259.563 292.024,259.157 292.305,258.860 292.642 M117.200 298.800 C 117.530 299.013,118.070 299.188,118.400 299.188 C 118.933 299.188,118.933 299.145,118.400 298.800 C 118.070 298.587,117.530 298.412,117.200 298.412 C 116.667 298.412,116.667 298.455,117.200 298.800 M120.400 299.580 C 121.399 299.920,123.882 300.132,123.567 299.851 C 123.475 299.769,122.500 299.599,121.400 299.472 C 120.051 299.316,119.726 299.351,120.400 299.580 M244.000 299.600 L 242.600 299.895 244.000 299.919 C 244.770 299.933,245.760 299.789,246.200 299.600 L 247.000 299.256 246.200 299.281 C 245.760 299.294,244.770 299.438,244.000 299.600 " stroke="none" fill="#fcb0a3" fill-rule="evenodd"></path><path id="path3" d="M277.300 99.894 C 278.345 99.976,280.055 99.976,281.100 99.894 C 282.145 99.812,281.290 99.744,279.200 99.744 C 277.110 99.744,276.255 99.812,277.300 99.894 M269.500 101.829 C 267.949 102.670,268.125 102.961,269.700 102.159 C 271.208 101.393,271.475 101.194,270.967 101.216 C 270.765 101.225,270.105 101.501,269.500 101.829 M266.254 103.833 C 265.623 104.387,265.174 104.907,265.254 104.987 C 265.335 105.068,265.988 104.609,266.707 103.967 C 267.425 103.325,267.875 102.806,267.706 102.813 C 267.538 102.820,266.884 103.279,266.254 103.833 M291.400 103.788 C 292.060 104.329,292.770 104.778,292.978 104.786 C 293.185 104.794,292.745 104.350,292.000 103.800 C 290.257 102.514,289.835 102.505,291.400 103.788 M258.695 111.105 C 255.453 114.353,252.800 117.104,252.800 117.220 C 252.800 117.335,254.915 115.329,257.500 112.762 C 263.079 107.221,265.023 105.200,264.773 105.200 C 264.673 105.200,261.937 107.857,258.695 111.105 M300.084 120.667 C 300.038 122.904,299.896 125.064,299.770 125.467 C 299.558 126.143,299.574 126.146,299.984 125.510 C 300.260 125.082,300.379 123.264,300.298 120.710 L 300.169 116.600 300.084 120.667 M267.200 132.600 C 275.228 140.630,281.886 147.200,281.996 147.200 C 282.106 147.200,275.628 140.630,267.600 132.600 C 259.572 124.570,252.914 118.000,252.804 118.000 C 252.694 118.000,259.172 124.570,267.200 132.600 M210.200 159.600 C 191.941 177.860,177.104 192.800,177.229 192.800 C 177.355 192.800,192.402 177.860,210.668 159.600 C 228.934 141.340,243.771 126.400,243.638 126.400 C 243.506 126.400,228.459 141.340,210.200 159.600 M258.798 140.916 C 266.827 148.992,273.478 155.600,273.579 155.600 C 273.853 155.600,245.271 126.933,244.481 126.416 C 244.327 126.314,250.769 132.839,258.798 140.916 M121.800 133.213 C 111.312 134.585,101.348 143.833,100.216 153.247 C 100.010 154.953,100.015 154.962,100.400 153.600 C 101.947 148.124,103.682 144.769,106.559 141.693 C 110.151 137.854,112.887 136.153,118.800 134.084 C 120.728 133.409,184.994 132.808,191.507 133.404 C 195.153 133.737,197.689 135.279,199.066 138.000 C 199.567 138.990,199.983 139.499,199.989 139.131 C 200.008 138.013,197.472 135.061,195.581 134.000 L 193.800 133.000 159.000 132.949 C 139.860 132.922,123.120 133.040,121.800 133.213 M288.995 140.900 L 282.600 147.400 289.100 141.005 C 295.139 135.063,295.781 134.400,295.495 134.400 C 295.438 134.400,292.513 137.325,288.995 140.900 M199.962 142.076 C 199.690 144.841,198.296 147.128,195.926 148.697 L 194.259 149.800 158.563 150.000 C 138.930 150.110,122.776 150.290,122.666 150.400 C 122.223 150.843,192.600 150.414,194.270 149.964 C 197.729 149.030,200.682 144.744,200.324 141.175 C 200.215 140.086,200.140 140.274,199.962 142.076 M120.168 151.695 C 119.491 152.160,118.501 153.184,117.968 153.970 L 117.000 155.400 116.994 216.200 L 116.989 277.000 117.194 216.400 C 117.426 148.247,117.111 154.429,120.474 151.992 C 122.332 150.647,122.068 150.391,120.168 151.695 M240.199 189.700 L 207.000 223.000 240.300 189.801 C 271.257 158.938,273.779 156.400,273.499 156.400 C 273.444 156.400,258.459 171.385,240.199 189.700 M99.795 216.600 C 99.795 249.380,99.842 262.731,99.900 246.269 C 99.958 229.806,99.958 202.986,99.900 186.669 C 99.842 170.351,99.795 183.820,99.795 216.600 M253.734 201.054 C 252.056 202.143,249.985 204.889,250.020 205.980 C 250.031 206.321,250.400 205.858,250.841 204.950 C 251.803 202.969,252.914 201.871,255.023 200.819 C 255.890 200.386,256.321 200.025,255.980 200.016 C 255.639 200.007,254.629 200.474,253.734 201.054 M262.000 200.934 C 264.384 202.141,266.257 204.897,266.598 207.703 C 267.137 212.125,266.610 279.699,266.026 281.200 C 265.726 281.970,265.351 282.960,265.194 283.400 C 264.292 285.917,261.758 290.239,260.641 291.166 C 260.288 291.459,260.000 291.876,260.000 292.093 C 260.000 292.671,262.780 289.491,262.791 288.900 C 262.796 288.625,262.950 288.400,263.132 288.400 C 263.521 288.400,265.411 284.287,266.350 281.400 C 266.931 279.612,267.000 275.491,267.000 242.600 L 267.000 205.800 265.894 204.098 C 264.707 202.272,261.888 199.993,260.840 200.011 C 260.488 200.017,261.010 200.433,262.000 200.934 M174.249 205.415 C 174.112 205.773,174.015 206.366,174.034 206.733 C 174.053 207.100,174.227 206.869,174.421 206.220 C 174.798 204.958,174.665 204.333,174.249 205.415 M249.698 241.913 C 249.590 279.939,249.725 277.943,247.080 280.766 L 245.800 282.133 247.053 281.272 C 250.158 279.141,250.017 281.076,249.900 242.100 L 249.796 207.400 249.698 241.913 M173.467 209.067 C 173.320 209.213,173.215 209.798,173.234 210.367 C 173.268 211.381,173.275 211.379,173.621 210.220 C 173.985 209.003,173.931 208.602,173.467 209.067 M172.649 213.415 C 172.512 213.773,172.415 214.366,172.434 214.733 C 172.453 215.100,172.627 214.869,172.821 214.220 C 173.198 212.958,173.065 212.333,172.649 213.415 M171.867 217.067 C 171.720 217.213,171.615 217.798,171.634 218.367 C 171.668 219.381,171.675 219.379,172.021 218.220 C 172.385 217.003,172.331 216.602,171.867 217.067 M171.049 221.015 C 170.912 221.373,170.816 222.056,170.836 222.533 C 170.862 223.147,170.985 223.008,171.259 222.056 C 171.657 220.672,171.494 219.858,171.049 221.015 M201.800 224.000 C 201.029 224.331,201.031 224.345,201.876 224.372 C 202.358 224.387,202.864 224.220,203.000 224.000 C 203.292 223.527,202.901 223.527,201.800 224.000 M197.800 224.800 L 197.000 225.144 197.800 225.166 C 198.240 225.178,198.870 225.013,199.200 224.800 C 199.995 224.286,198.996 224.286,197.800 224.800 M193.800 225.600 C 193.029 225.931,193.031 225.945,193.876 225.972 C 194.358 225.987,194.864 225.820,195.000 225.600 C 195.292 225.127,194.901 225.127,193.800 225.600 M170.816 226.425 C 170.798 227.139,173.068 229.465,173.430 229.103 C 173.561 228.972,173.296 228.666,172.842 228.422 C 172.387 228.179,171.749 227.489,171.424 226.890 C 171.072 226.242,170.826 226.053,170.816 226.425 M189.800 226.400 C 189.029 226.731,189.031 226.745,189.876 226.772 C 190.358 226.787,190.864 226.620,191.000 226.400 C 191.292 225.927,190.901 225.927,189.800 226.400 M185.800 227.200 L 185.000 227.544 185.800 227.566 C 186.240 227.578,186.870 227.413,187.200 227.200 C 187.995 226.686,186.996 226.686,185.800 227.200 M181.800 228.000 C 181.029 228.331,181.031 228.345,181.876 228.372 C 182.358 228.387,182.864 228.220,183.000 228.000 C 183.292 227.527,182.901 227.527,181.800 228.000 M178.000 228.800 C 177.176 229.064,177.141 229.126,177.800 229.154 C 178.240 229.173,178.870 229.013,179.200 228.800 C 179.901 228.347,179.414 228.347,178.000 228.800 M100.044 279.129 C 99.857 283.060,105.010 291.767,109.391 294.926 C 110.046 295.398,109.326 294.528,107.791 292.992 C 103.903 289.103,101.986 285.696,100.595 280.200 C 100.311 279.080,100.069 278.609,100.044 279.129 M120.744 281.976 C 121.264 282.429,121.879 282.800,122.111 282.800 C 122.603 282.800,122.579 282.780,121.000 281.855 L 119.800 281.153 120.744 281.976 M152.900 283.100 C 169.565 283.158,196.835 283.158,213.500 283.100 C 230.165 283.042,216.530 282.995,183.200 282.995 C 149.870 282.995,136.235 283.042,152.900 283.100 M257.389 294.377 C 256.019 295.726,252.025 297.919,249.669 298.616 C 245.806 299.758,245.183 300.031,247.000 299.784 C 250.396 299.323,261.054 293.600,258.517 293.600 C 258.331 293.600,257.823 293.950,257.389 294.377 M110.800 296.043 C 110.800 296.239,110.997 296.400,111.238 296.400 C 111.479 296.400,112.154 296.729,112.738 297.132 C 114.224 298.156,117.896 299.528,119.800 299.770 C 121.030 299.927,120.891 299.843,119.200 299.410 C 117.990 299.101,115.605 298.136,113.900 297.267 C 112.195 296.397,110.800 295.847,110.800 296.043 M152.300 300.300 C 169.295 300.358,197.105 300.358,214.100 300.300 C 231.095 300.242,217.190 300.195,183.200 300.195 C 149.210 300.195,135.305 300.242,152.300 300.300 " stroke="none" fill="#fcc8be" fill-rule="evenodd"></path><path id="path4" d="M299.450 124.450 C 299.117 126.117,299.440 126.440,299.800 124.800 C 299.952 124.109,299.993 123.459,299.891 123.358 C 299.789 123.256,299.591 123.747,299.450 124.450 M242.378 128.300 L 241.000 129.800 242.500 128.422 C 243.896 127.138,244.184 126.800,243.878 126.800 C 243.812 126.800,243.137 127.475,242.378 128.300 M246.200 128.800 C 247.283 129.900,248.260 130.800,248.370 130.800 C 248.480 130.800,247.683 129.900,246.600 128.800 C 245.517 127.700,244.540 126.800,244.430 126.800 C 244.320 126.800,245.117 127.700,246.200 128.800 M119.800 134.193 C 108.692 136.994,101.820 144.862,100.414 156.390 C 99.827 161.197,99.848 272.699,100.436 277.236 C 102.014 289.401,109.906 297.561,122.033 299.565 C 126.332 300.275,240.850 300.149,245.000 299.429 C 255.925 297.534,263.294 290.803,265.834 280.400 C 266.648 277.067,266.650 207.496,265.836 205.549 C 262.985 198.725,253.971 198.638,250.919 205.405 C 250.249 206.890,250.186 209.446,250.000 242.618 C 249.781 281.655,249.961 278.871,247.503 281.230 C 244.870 283.757,249.615 283.582,183.400 283.582 C 113.622 283.582,119.910 284.057,117.347 278.600 L 116.408 276.600 116.404 216.749 C 116.400 150.583,116.212 155.339,118.936 152.469 C 121.396 149.878,119.491 150.001,157.349 149.994 C 183.539 149.989,192.184 149.869,193.400 149.494 C 201.018 147.142,202.021 137.742,195.007 134.445 C 192.795 133.406,123.840 133.174,119.800 134.193 M261.000 143.600 C 264.294 146.900,267.080 149.600,267.190 149.600 C 267.300 149.600,264.694 146.900,261.400 143.600 C 258.106 140.300,255.320 137.600,255.210 137.600 C 255.100 137.600,257.706 140.300,261.000 143.600 M226.987 143.700 L 224.600 146.200 227.100 143.813 C 228.475 142.499,229.600 141.374,229.600 141.313 C 229.600 141.017,229.205 141.378,226.987 143.700 M270.783 153.300 C 271.764 154.345,272.619 155.200,272.683 155.200 C 272.984 155.200,272.666 154.841,270.900 153.183 L 269.000 151.400 270.783 153.300 M210.185 160.500 L 208.200 162.600 210.300 160.615 C 212.251 158.771,212.583 158.400,212.285 158.400 C 212.222 158.400,211.277 159.345,210.185 160.500 M193.387 177.300 L 191.000 179.800 193.500 177.413 C 195.822 175.195,196.183 174.800,195.887 174.800 C 195.826 174.800,194.701 175.925,193.387 177.300 M178.204 192.396 C 177.574 193.054,177.135 193.656,177.229 193.734 C 177.323 193.812,177.913 193.274,178.539 192.538 C 179.954 190.877,179.745 190.788,178.204 192.396 " stroke="none" fill="#fc9c8c" fill-rule="evenodd"></path></g></svg>